<svg xmlns="http://www.w3.org/2000/svg" viewBox="0 0 548.17 402"><defs><style>.cls-1{fill:#fff;}.cls-2{fill:#464de4;}</style></defs><title>cloud-sync_1</title><g id="Layer_2" data-name="Layer 2"><g id="Capa_1" data-name="Capa 1"><path class="cls-1" d="M524.18,224q-24-29.85-60.81-38.4a70.76,70.76,0,0,0,11.7-39.4q0-30.27-21.41-51.68T402,73.09q-27.4,0-47.39,17.7a146,146,0,0,0-53.53-65.66Q264.38,0,219.27,0,158.74,0,115.91,42.83T73.09,146.18q0,4.29.57,12.28a125.77,125.77,0,0,0-53.39,46.68A124.17,124.17,0,0,0,0,274.09q0,52.82,37.54,90.36T127.91,402H438.54q45.39,0,77.51-32.12t32.12-77.52Q548.17,253.83,524.18,224Z"/><path class="cls-2" d="M363.29,192.32l-4.17,17.94q-1.15-3.81-2.65-7.51a88.82,88.82,0,0,0-161.75-6.58,11.51,11.51,0,0,0,5.14,15.45,11.76,11.76,0,0,0,2.56.93,11.53,11.53,0,0,0,12.89-6.07,66,66,0,0,1,30.51-29.86,65.79,65.79,0,0,1,78.7,17.12,66.47,66.47,0,0,1,13.23,25.61l-12.43-2.89a11.51,11.51,0,0,0-5.21,22.43L362,248.63A11.52,11.52,0,0,0,375.85,240l9.87-42.49a11.51,11.51,0,1,0-22.43-5.21Z"/><path class="cls-2" d="M171.07,288.29a11.52,11.52,0,0,0,13.82-8.61l4.18-18a88.83,88.83,0,0,0,64.87,60.83h.12a88.83,88.83,0,0,0,99.4-46.69,11.51,11.51,0,0,0-20.59-10.31,66.13,66.13,0,0,1-30.51,29.86,65.76,65.76,0,0,1-91.9-42.72l12.39,2.88a11.51,11.51,0,1,0,5.21-22.43l-41.91-9.74A11.51,11.51,0,0,0,172.33,232l-9.87,42.49A11.51,11.51,0,0,0,171.07,288.29Z"/></g></g></svg>