<svg xmlns="http://www.w3.org/2000/svg" viewBox="0 0 512 455.11"><title>overview-2</title><g id="Layer_2" data-name="Layer 2"><g id="Layer_1-2" data-name="Layer 1"><g id="Layer_2-2" data-name="Layer 2"><g id="Capa_1" data-name="Capa 1"><path d="M475.69,70.81H36.31A35.93,35.93,0,0,0,0,106.34V418.8a35.93,35.93,0,0,0,35.53,36.31H475.69A35.91,35.91,0,0,0,512,419.58q0-.39,0-.78V107.12a35.92,35.92,0,0,0-35.52-36.31Zm0,348H36.31L36,107.15a1.31,1.31,0,0,1,.28,0H475.69V418.8Z"/><rect x="18.16" y="198.51" width="475.69" height="36.31"/><path d="M302,216.66v67.18H210V216.66H173.69V302a18.16,18.16,0,0,0,18.16,18.15h128.3A18.15,18.15,0,0,0,338.31,302V216.66Z"/><path d="M324.39,0H187.61a42.4,42.4,0,0,0-42.36,42.36V89h36.31V42.36a6.13,6.13,0,0,1,6.05-6H324.39a6.13,6.13,0,0,1,6.05,6V89h36.31V42.36A42.41,42.41,0,0,0,324.39,0Z"/></g></g></g></g></svg>