<?xml version="1.0" encoding="utf-8"?>
<!-- Generator: Adobe Illustrator 22.1.0, SVG Export Plug-In . SVG Version: 6.00 Build 0)  -->
<svg version="1.1" id="Layer_1" xmlns="http://www.w3.org/2000/svg" xmlns:xlink="http://www.w3.org/1999/xlink" x="0px" y="0px"
	 viewBox="0 0 324 512" style="enable-background:new 0 0 324 512;" xml:space="preserve">
<style type="text/css">
	.st0{fill:#464DE4;}
</style>
<title>total-devices</title>
<g id="Layer_2_1_">
	<g id="Layer_1-2">
		<path class="st0" d="M0,14v484c0,7.7,6.3,14,14,14h296c7.7,0,14-6.3,14-14V14c0-7.7-6.3-14-14-14H14C6.3,0,0,6.3,0,14z M280,396
			H44c-7.7,0-14-6.3-14-14V114c0-7.7,6.3-14,14-14h236c7.7,0,14,6.3,14,14v268C294,389.7,287.7,396,280,396z M294,44v12
			c0,7.7-6.3,14-14,14H44c-7.7,0-14-6.3-14-14V44c0-7.7,6.3-14,14-14h236C287.7,30,294,36.3,294,44z M30,468v-28c0-7.7,6.3-14,14-14
			h236c7.7,0,14,6.3,14,14v28c0,7.7-6.3,14-14,14l0,0H44C36.3,482,30,475.7,30,468L30,468z"/>
		<path class="st0" d="M161.1,439.5h1.7c7.7,0,14,6.3,14,14v1.7c0,7.7-6.3,14-14,14h-1.7c-7.7,0-14-6.3-14-14v-1.7
			C147.1,445.8,153.4,439.5,161.1,439.5z"/>
	</g>
</g>
</svg>
