<?xml version="1.0" encoding="utf-8"?>
<!-- Generator: Adobe Illustrator 22.1.0, SVG Export Plug-In . SVG Version: 6.00 Build 0)  -->
<svg version="1.1" id="Layer_1" xmlns="http://www.w3.org/2000/svg" xmlns:xlink="http://www.w3.org/1999/xlink" x="0px" y="0px"
	 viewBox="0 0 512 443.1" style="enable-background:new 0 0 512 443.1;" xml:space="preserve">
<style type="text/css">
	.st0{fill:#464DE4;}
</style>
<title>total-employees</title>
<g id="Layer_2_1_">
	<g id="Capa_1">
		<path class="st0" d="M374.3,59.1L374.3,59.1c0-32.7-26.5-59.1-59.1-59.1c0,0,0,0,0,0H196.9c-32.7,0-59.1,26.5-59.2,59.1
			c0,0,0,0,0,0l0,0c0,5.4-4.3,9.7-9.7,9.7H9.7c-5.4,0-9.7,4.3-9.7,9.7v354.9c0,5.4,4.3,9.7,9.7,9.7h492.6c5.4,0,9.7-4.4,9.7-9.7
			V78.6c0-5.4-4.3-9.7-9.7-9.7H384C378.6,68.9,374.3,64.5,374.3,59.1z M167.7,59.1c0-16.1,13.1-29.1,29.1-29.1h118.3
			c16.1,0,29.1,13,29.1,29.1l0,0c0,5.4-4.4,9.7-9.7,9.7l0,0H177.4C172.1,68.9,167.7,64.5,167.7,59.1L167.7,59.1L167.7,59.1z
			 M482,108.6v34.9c0,3.5-1.9,6.7-4.9,8.4L260.9,276.7c-3,1.7-6.7,1.7-9.7,0L34.9,151.9c-3-1.7-4.9-4.9-4.9-8.4v-34.9
			c0-5.4,4.3-9.7,9.7-9.7h432.6C477.7,98.9,482,103.2,482,108.6z M30,413.1V200.5c0-5.4,4.4-9.7,9.7-9.7c1.7,0,3.4,0.4,4.8,1.3
			l206.6,119.3c3,1.7,6.7,1.7,9.7,0l206.6-119.3c4.7-2.7,10.6-1.1,13.3,3.6c0.8,1.5,1.3,3.1,1.3,4.8v202.9c0,5.4-4.3,9.7-9.7,9.7H30
			z"/>
		<path class="st0" d="M231.3,170.3h49.4c5.4,0,9.7,4.4,9.7,9.7l0,0v10.6c0,5.4-4.4,9.7-9.7,9.7h-49.4c-5.4,0-9.7-4.3-9.7-9.7v0V180
			C221.6,174.6,225.9,170.3,231.3,170.3L231.3,170.3z"/>
	</g>
</g>
</svg>
