<svg xmlns="http://www.w3.org/2000/svg" viewBox="0 0 323.98 512"><defs><style>.cls-1{fill:#00b050;}</style></defs><title>total-devices</title><g id="Layer_2" data-name="Layer 2"><g id="Layer_1-2" data-name="Layer 1"><path class="cls-1" d="M0,14V498a14,14,0,0,0,14,14H310a14,14,0,0,0,14-14V14A14,14,0,0,0,310,0H14A14,14,0,0,0,0,14ZM280,396H44a14,14,0,0,1-14-14V114a14,14,0,0,1,14-14H280a14,14,0,0,1,14,14V382A14,14,0,0,1,280,396ZM294,44V56a14,14,0,0,1-14,14H44A14,14,0,0,1,30,56V44A14,14,0,0,1,44,30H280A14,14,0,0,1,294,44ZM30,468V440a14,14,0,0,1,14-14H280a14,14,0,0,1,14,14v28a14,14,0,0,1-14,14H44A14,14,0,0,1,30,468Z"/><path class="cls-1" d="M161.15,439.5h1.69a14,14,0,0,1,14,14v1.69a14,14,0,0,1-14,14h-1.69a14,14,0,0,1-14-14v-1.69A14,14,0,0,1,161.15,439.5Z"/></g></g></svg>