<?xml version="1.0" encoding="utf-8"?>
<!-- Generator: Adobe Illustrator 22.1.0, SVG Export Plug-In . SVG Version: 6.00 Build 0)  -->
<svg version="1.1" id="Layer_1" xmlns="http://www.w3.org/2000/svg" xmlns:xlink="http://www.w3.org/1999/xlink" x="0px" y="0px"
	 viewBox="0 0 512 512" style="enable-background:new 0 0 512 512;" xml:space="preserve">
<style type="text/css">
	.st0{fill:#464DE4;}
</style>
<title>total-alerts</title>
<g id="Layer_2_1_">
	<g id="Layer_1-2">
		<path class="st0" d="M9,241h494c5,0,9,4,9,9v12c0,5-4,9-9,9H9c-5,0-9-4-9-9v-12C0,245,4,241,9,241z"/>
		<path class="st0" d="M250,385.5h12c5,0,9,4,9,9v12c0,5-4,9-9,9h-12c-5,0-9-4-9-9v-12C241,389.5,245,385.5,250,385.5z"/>
		<path class="st0" d="M250,96.5h12c5,0,9,4,9,9l0,0v242c0,5-4,9-9,9h-12c-5,0-9-4-9-9v-242C241,100.5,245,96.5,250,96.5L250,96.5z"
			/>
		<path class="st0" d="M172,158.5h12c5,0,9,3,9,6.8v181.5c0,3.7-4,6.8-9,6.8h-12c-5,0-9-3-9-6.8V165.3
			C163,161.5,167,158.5,172,158.5z"/>
		<path class="st0" d="M90,202.5h12c5,0,9,1.7,9,3.7v99.6c0,2-4,3.7-9,3.7H90c-5,0-9-1.7-9-3.7v-99.6C81,204.2,85,202.5,90,202.5z"
			/>
		<path class="st0" d="M414,202.5h12c5,0,9,1.7,9,3.7v99.6c0,2-4,3.7-9,3.7h-12c-5,0-9-1.7-9-3.7v-99.6
			C405,204.2,409,202.5,414,202.5z"/>
		<path class="st0" d="M333,158.5h12c5,0,9,3,9,6.8v181.5c0,3.7-4,6.8-9,6.8h-12c-5,0-9-3-9-6.8V165.3
			C324,161.5,328,158.5,333,158.5z"/>
		<path class="st0" d="M39,30h57c5,0,9-4,9-9V9c0-5-4-9-9-9H9C4,0,0,4,0,9v87c0,5,4,9,9,9l0,0h12c5,0,9-4,9-9l0,0V39
			C30,34,34,30,39,30z"/>
		<path class="st0" d="M21,407H9c-5,0-9,4-9,9v87c0,5,4,9,9,9h87c5,0,9-4,9-9v-12c0-5-4-9-9-9H39c-5,0-9-4-9-9v-57
			C30,411,26,407,21,407z"/>
		<path class="st0" d="M473,482h-57c-5,0-9,4-9,9v12c0,5,4,9,9,9h87c5,0,9-4,9-9v-87c0-5-4-9-9-9h-12c-5,0-9,4-9,9v57
			C482,478,478,482,473,482z"/>
		<path class="st0" d="M407,9v12c0,5,4,9,9,9h57c5,0,9,4,9,9v57c0,5,4,9,9,9l0,0h12c5,0,9-4,9-9l0,0V9c0-5-4-9-9-9h-87
			C411,0,407,4,407,9z"/>
	</g>
</g>
</svg>
