<svg xmlns="http://www.w3.org/2000/svg" viewBox="0 0 512 512"><defs><style>.cls-1{fill:#00b050;}</style></defs><title>total-alerts</title><g id="Layer_2" data-name="Layer 2"><g id="Layer_1-2" data-name="Layer 1"><path class="cls-1" d="M9,241H503a9,9,0,0,1,9,9v12a9,9,0,0,1-9,9H9a9,9,0,0,1-9-9V250A9,9,0,0,1,9,241Z"/><path class="cls-1" d="M250,385.5h12a9,9,0,0,1,9,9v12a9,9,0,0,1-9,9H250a9,9,0,0,1-9-9v-12A9,9,0,0,1,250,385.5Z"/><path class="cls-1" d="M250,96.5h12a9,9,0,0,1,9,9v242a9,9,0,0,1-9,9H250a9,9,0,0,1-9-9v-242A9,9,0,0,1,250,96.5Z"/><path class="cls-1" d="M172,158.5h12c5,0,9,3,9,6.75v181.5c0,3.73-4,6.75-9,6.75H172c-5,0-9-3-9-6.75V165.25C163,161.52,167,158.5,172,158.5Z"/><path class="cls-1" d="M90,202.5h12c5,0,9,1.66,9,3.7v99.6c0,2-4,3.7-9,3.7H90c-5,0-9-1.66-9-3.7V206.2C81,204.16,85,202.5,90,202.5Z"/><path class="cls-1" d="M414,202.5h12c5,0,9,1.66,9,3.7v99.6c0,2-4,3.7-9,3.7H414c-5,0-9-1.66-9-3.7V206.2C405,204.16,409,202.5,414,202.5Z"/><path class="cls-1" d="M333,158.5h12c5,0,9,3,9,6.75v181.5c0,3.73-4,6.75-9,6.75H333c-5,0-9-3-9-6.75V165.25C324,161.52,328,158.5,333,158.5Z"/><path class="cls-1" d="M39,30H96a9,9,0,0,0,9-9V9a9,9,0,0,0-9-9H9A9,9,0,0,0,0,9V96a9,9,0,0,0,9,9H21a9,9,0,0,0,9-9V39A9,9,0,0,1,39,30Z"/><path class="cls-1" d="M21,407H9a9,9,0,0,0-9,9v87a9,9,0,0,0,9,9H96a9,9,0,0,0,9-9V491a9,9,0,0,0-9-9H39a9,9,0,0,1-9-9V416A9,9,0,0,0,21,407Z"/><path class="cls-1" d="M473,482H416a9,9,0,0,0-9,9v12a9,9,0,0,0,9,9h87a9,9,0,0,0,9-9V416a9,9,0,0,0-9-9H491a9,9,0,0,0-9,9v57A9,9,0,0,1,473,482Z"/><path class="cls-1" d="M407,9V21a9,9,0,0,0,9,9h57a9,9,0,0,1,9,9V96a9,9,0,0,0,9,9h12a9,9,0,0,0,9-9V9a9,9,0,0,0-9-9H416A9,9,0,0,0,407,9Z"/></g></g></svg>