<svg xmlns="http://www.w3.org/2000/svg" viewBox="0 0 114.73 250.19"><defs><style>.cls-1{fill:#464de4;}</style></defs><title>total-cases</title><g id="Layer_2" data-name="Layer 2"><g id="Capa_1" data-name="Capa 1"><path class="cls-1" d="M92.12,147.25V34.74a34.75,34.75,0,0,0-69.5,0V147.25a57.36,57.36,0,1,0,69.5,0ZM57.36,235.19A42.32,42.32,0,0,1,34.23,157.4a7.52,7.52,0,0,0,3.39-6.27V34.74a19.75,19.75,0,0,1,39.5,0V151.13a7.49,7.49,0,0,0,3.39,6.27,42.33,42.33,0,0,1-23.15,77.79Z"/><path class="cls-1" d="M64.87,169V69.92a7.5,7.5,0,0,0-15,0V169a24.93,24.93,0,1,0,15,0Z"/></g></g></svg>