<svg xmlns="http://www.w3.org/2000/svg" viewBox="0 0 512 348.45"><defs><style>.cls-1{fill:#00b050;}</style></defs><title>total-visitors</title><g id="Layer_2" data-name="Layer 2"><g id="Capa_1" data-name="Capa 1"><path class="cls-1" d="M466.71,159.68a65.38,65.38,0,1,0-89.92,0,91.06,91.06,0,0,0-25.45,21.83,106.17,106.17,0,0,0-46.49-48.31,75.58,75.58,0,1,0-97.7,0,106.15,106.15,0,0,0-46.48,48.31,91.1,91.1,0,0,0-25.46-21.83,65.38,65.38,0,1,0-89.92,0A90.3,90.3,0,0,0,0,237.91v95.93a14.61,14.61,0,0,0,14.61,14.61H497.39A14.61,14.61,0,0,0,512,333.84V237.91A90.3,90.3,0,0,0,466.71,159.68ZM92.78,77a35.38,35.38,0,1,1-37.91,35.29A35.5,35.5,0,0,1,92.78,77ZM150.5,318.45H44.61A14.61,14.61,0,0,1,30,303.84v-65c0-32.31,25.08-59.55,57.35-61.07a60.31,60.31,0,0,1,63.15,60.18ZM251.84,30.19A45.59,45.59,0,1,1,210.6,71.43,45.63,45.63,0,0,1,251.84,30.19ZM331.5,318.45h-151V227.6c0-40.77,32-74.9,72.71-76.38a75.59,75.59,0,0,1,78.29,75.45ZM417.91,77.1a35.39,35.39,0,1,1-31.34,31.33A35.42,35.42,0,0,1,417.91,77.1Zm49.48,241.35H361.5V238.79c0-32.3,25.08-59.54,57.34-61.06A60.32,60.32,0,0,1,482,237.91v65.93A14.61,14.61,0,0,1,467.39,318.45Z"/></g></g></svg>