<svg xmlns="http://www.w3.org/2000/svg" viewBox="0 0 512 443.15"><defs><style>.cls-1{fill:#00b050;}</style></defs><title>total-employees</title><g id="Layer_2" data-name="Layer 2"><g id="Capa_1" data-name="Capa 1"><path class="cls-1" d="M374.29,59.14h0A59.14,59.14,0,0,0,315.14,0H196.86a59.14,59.14,0,0,0-59.15,59.14h0A9.72,9.72,0,0,1,128,68.86H9.71A9.71,9.71,0,0,0,0,78.57V433.43a9.72,9.72,0,0,0,9.71,9.72H502.29a9.72,9.72,0,0,0,9.71-9.72V78.57a9.71,9.71,0,0,0-9.71-9.71H384A9.72,9.72,0,0,1,374.29,59.14Zm-206.58,0A29.15,29.15,0,0,1,196.86,30H315.14a29.15,29.15,0,0,1,29.15,29.14h0a9.72,9.72,0,0,1-9.72,9.72H177.43a9.72,9.72,0,0,1-9.72-9.72ZM482,108.57v34.88a9.7,9.7,0,0,1-4.86,8.41L260.86,276.74a9.75,9.75,0,0,1-9.72,0L34.86,151.86A9.7,9.7,0,0,1,30,143.45V108.57a9.71,9.71,0,0,1,9.71-9.71H472.29A9.71,9.71,0,0,1,482,108.57ZM30,413.15V200.52a9.72,9.72,0,0,1,14.57-8.41L251.14,311.38a9.75,9.75,0,0,0,9.72,0L467.43,192.11A9.72,9.72,0,0,1,482,200.52V403.43a9.72,9.72,0,0,1-9.71,9.72Z"/><path class="cls-1" d="M231.28,170.27h49.43a9.72,9.72,0,0,1,9.72,9.72v10.57a9.72,9.72,0,0,1-9.72,9.71H231.28a9.71,9.71,0,0,1-9.71-9.71V180A9.72,9.72,0,0,1,231.28,170.27Z"/></g></g></svg>