<?xml version="1.0" encoding="utf-8"?>
<!-- Generator: Adobe Illustrator 22.1.0, SVG Export Plug-In . SVG Version: 6.00 Build 0)  -->
<svg version="1.1" id="Layer_1" xmlns="http://www.w3.org/2000/svg" xmlns:xlink="http://www.w3.org/1999/xlink" x="0px" y="0px"
	 viewBox="0 0 512 348.5" style="enable-background:new 0 0 512 348.5;" xml:space="preserve">
<style type="text/css">
	.st0{fill:#464DE4;}
</style>
<title>total-visitors</title>
<g id="Layer_2_1_">
	<g id="Capa_1">
		<path class="st0" d="M466.7,159.7c26.2-24.8,27.3-66.2,2.5-92.4s-66.2-27.3-92.4-2.5s-27.3,66.2-2.5,92.4c0.8,0.9,1.6,1.7,2.5,2.5
			c-9.8,5.6-18.4,13-25.5,21.8c-9.9-20.7-26.2-37.7-46.5-48.3c31.9-27,35.8-74.7,8.8-106.5c-27-31.9-74.7-35.8-106.5-8.8
			s-35.8,74.7-8.8,106.5c2.7,3.2,5.6,6.1,8.8,8.8c-20.3,10.7-36.6,27.6-46.5,48.3c-7.1-8.8-15.7-16.2-25.5-21.8
			c26.2-24.8,27.3-66.2,2.5-92.4s-66.2-27.3-92.4-2.5S18,131,42.8,157.2c0.8,0.9,1.6,1.7,2.5,2.5C17.3,175.8,0,205.6,0,237.9v95.9
			c0,8.1,6.5,14.6,14.6,14.6h482.8c8.1,0,14.6-6.5,14.6-14.6v-95.9C512,205.6,494.7,175.8,466.7,159.7z M92.8,77
			c19.5,1.4,34.2,18.3,32.8,37.8c-1.4,19.5-18.3,34.2-37.8,32.8c-18.5-1.3-32.8-16.7-32.9-35.3c0.1-19.6,16-35.4,35.6-35.4
			C91.3,76.9,92,76.9,92.8,77z M150.5,318.5H44.6c-8.1,0-14.6-6.5-14.6-14.6c0,0,0,0,0,0v-65c0-32.3,25.1-59.6,57.3-61.1
			c33.3-1.6,61.5,24.1,63.1,57.4c0,0.9,0.1,1.9,0.1,2.8V318.5z M251.8,30.2c25.1-2.3,47.3,16.2,49.6,41.2
			c2.3,25.1-16.2,47.3-41.2,49.6c-25.1,2.3-47.3-16.2-49.6-41.2c-0.3-2.8-0.3-5.6,0-8.3C212.6,49.5,230,32.2,251.8,30.2z
			 M331.5,318.5h-151v-90.9c0-40.8,32-74.9,72.7-76.4c41.7-1.5,76.8,31.1,78.2,72.8c0,0.9,0,1.7,0,2.6V318.5z M417.9,77.1
			c19.4-2.1,36.9,11.9,39,31.3c2.1,19.4-11.9,36.9-31.3,39c-19.4,2.1-36.9-11.9-39-31.3c-0.3-2.6-0.3-5.1,0-7.7
			C388.4,91.9,401.4,78.9,417.9,77.1z M467.4,318.5H361.5v-79.7c0-32.3,25.1-59.5,57.3-61.1c33.3-1.6,61.5,24.1,63.1,57.4
			c0,0.9,0.1,1.8,0.1,2.8v65.9C482,311.9,475.5,318.5,467.4,318.5L467.4,318.5z"/>
	</g>
</g>
</svg>
