<svg xmlns="http://www.w3.org/2000/svg" viewBox="0 0 497.54 293.95"><defs><style>.cls-1{fill:#464de4;}</style></defs><title>total-employees</title><g id="Layer_2" data-name="Layer 2"><g id="Layer_1-2" data-name="Layer 1"><g id="Layer_2-2" data-name="Layer 2"><g id="Layer_1-2-2" data-name="Layer 1-2"><path class="cls-1" d="M497.54,237.34c-3.05,5.94-8.16,7.4-14.46,7.37-31.75-.15-63.5-.07-95.24-.07h-6.42c.93,3.76,2,6.79,2.39,9.9,1,8.67,2.11,17.35,2.58,26.06C386.9,290.11,383,294,373.46,294H125.15c-11.16,0-14.9-3.43-14.05-14.58.8-10.43,2.74-20.78,4.18-31.16.13-.94.21-1.89.41-3.56H14.55c-11.78,0-15.36-3.53-14.4-15.15.6-7.39,1.37-14.89,3.29-22,4.41-16.36,15.83-26.84,31-33.17,8.63-3.6,17.7-6.13,26.59-9,4.17-1.37,7.91-3.2,9-7.88.26-1.12,0-3.1-.82-3.63C52.39,142.3,46.21,125.2,44.12,106c-2.4-22.27,2.38-42.61,18-59.36,22.67-24.31,58.25-23.28,79.83,2,21.22,24.89,22.38,68.67,2.32,94.48a45.67,45.67,0,0,1-9.85,9.23c-3.25,2.26-3.67,4.72-1.41,7.08a24.64,24.64,0,0,0,8.52,5.8c8.88,3.4,18.41,5.39,26.88,9.57,7.39,3.65,13.63,9.59,20.5,14.33,1.37.94,3.47,1.75,5,1.43a21.1,21.1,0,0,0,16.39-18.27,4.84,4.84,0,0,0-1.85-3.78c-24.19-15.06-32.54-38.79-35.52-65.27-2.47-21.89.42-43,11.45-62.46,11.73-20.72,28.44-35.23,52.41-39.6s44.6,3.17,61.53,20.13c19.77,19.79,27.72,44.37,26.77,72-.62,18-3.8,35.34-13,51.2-5.44,9.4-12.36,17.4-21.82,22.9-3,1.76-3.77,3.63-2.92,7,2.18,8.68,8.38,14.8,17.34,16.18a4.78,4.78,0,0,0,3.62-1.35c9.19-10.27,21.14-15.81,33.89-20,4.6-1.5,9.37-2.53,13.94-4.14a19.7,19.7,0,0,0,7.05-4c3.66-3.56,3.15-6.23-.91-9.2-11.43-8.37-17.64-20.06-20.72-33.52-4.56-20-4.23-39.61,5.93-58,10.28-18.66,25.45-30.66,47.46-31.3,21.65-.62,37.23,10.29,48.41,28,15.43,24.5,13.73,63.52-3.75,85.78a51.45,51.45,0,0,1-10.21,9.56c-2.77,2-3.42,4.26-1.45,6.33a25.48,25.48,0,0,0,8.71,6.27c8.26,3.23,17,5.37,25.18,8.67,21.16,8.62,32.88,24.42,34.91,47.22.14,1.57.52,3.12.79,4.69Zm-132.07,36c-.13-23.93-9.68-41.66-31.7-51a322.89,322.89,0,0,0-33.89-11.58C277.13,204,266,189.26,266.2,165.45c.05-5.61,2.3-9.24,7.26-12.06,5.26-3,10.6-6.38,14.77-10.7,9.84-10.18,13.51-23.28,15.48-36.94,2.72-18.86,1.48-37.24-7.87-54.26-10.13-18.43-24.79-31-46.86-31.08-22.31-.13-37.12,12.45-47.37,31-9.47,17.16-10.7,35.7-7.82,54.72,3.19,21.15,11,39.11,32.07,48.7,2.47,1.12,4.84,5.23,5,8.11,1.61,22.72-9,40.91-31.45,47.25-12.1,3.42-24.25,7.1-35.74,12.12-21,9.15-31.93,25.15-31.55,51ZM20.91,224.13c1.22.1,2,.23,2.79.23,33.53,0,67.05,0,100.58-.09,1.83,0,3.86-1.21,5.45-2.35,7.32-5.25,14.29-11,21.85-15.92,5-3.24,10.87-5.26,16.75-8-9.7-6.94-20.47-9.86-31.19-12.88-17.52-4.94-26-16.13-26.45-34.22-.13-5.9,2.37-9.42,7.35-12.48,4.54-2.8,9.17-6.37,12.1-10.72,11.86-17.59,10.52-47.28-2.22-64.19-13.06-17.32-35.5-18.91-50.58-3.32C65.1,72.82,62.54,88.51,64.53,105.25c1.77,14.92,6.78,27.88,21.79,34.85,2.35,1.09,4.5,5,4.8,7.73,1.95,18.28-7.75,32-25.46,37.15-6.82,2-13.67,4-20.27,6.6C30.91,197.29,21.24,207,20.91,224.13ZM329,196.72l.36,1.61,8.8,3.8c10.63,4.63,20.5,10.42,28.48,19a10,10,0,0,0,8.06,3.34c32.23-.11,64.46-.06,96.69-.08,1.68,0,3.36-.17,5-.27-.74-14.55-6.17-23.78-18.52-29.52A195.39,195.39,0,0,0,432,185.14c-17.2-5.21-25.55-16-26-34-.17-6.16,2.41-9.69,7.55-12.83,4.54-2.77,9.45-6.35,11.93-10.83,10.6-19.09,11.71-39.2,1.07-58.43-14.34-25.89-43.9-26.25-59.83-1.3-7.82,12.24-8.63,25.87-6.64,39.81,2,14.11,7.36,26,21.33,32.53,2.39,1.13,4.76,4.91,5,7.64,1.35,16.07-5.88,31.52-23,36.54-3.25.95-6.62,1.6-9.78,2.79C345.36,190.11,337.22,193.46,329,196.72Z"/></g></g></g></g></svg>