<svg xmlns="http://www.w3.org/2000/svg" viewBox="0 0 384 512"><defs><style>.cls-1{fill:#464de4;}</style></defs><title>total-devices</title><g id="Layer_2" data-name="Layer 2"><g id="bold"><path class="cls-1" d="M325.33,0H58.67A58.71,58.71,0,0,0,0,58.67V453.33A58.71,58.71,0,0,0,58.67,512H325.33A58.71,58.71,0,0,0,384,453.33V58.67A58.71,58.71,0,0,0,325.33,0ZM192,474.67a32,32,0,1,1,32-32A32,32,0,0,1,192,474.67ZM330.67,336a37.37,37.37,0,0,1-37.34,37.33H90.67A37.37,37.37,0,0,1,53.33,336V90.67A37.38,37.38,0,0,1,90.67,53.33H293.33a37.38,37.38,0,0,1,37.34,37.34Z"/></g></g></svg>