<svg xmlns="http://www.w3.org/2000/svg" xmlns:xlink="http://www.w3.org/1999/xlink" viewBox="0 0 1113.56 844.08"><defs><style>.cls-1,.cls-5,.cls-7{fill:#464de4;}.cls-1,.cls-12{opacity:0.1;}.cls-1,.cls-12,.cls-18,.cls-20,.cls-6,.cls-7{isolation:isolate;}.cls-2{fill:url(#linear-gradient);}.cls-3{fill:#fff;}.cls-4,.cls-6{fill:#c0bccf;}.cls-6,.cls-7,.cls-8{opacity:0.5;}.cls-9{fill:url(#linear-gradient-2);}.cls-10{fill:#493545;}.cls-11{fill:#c77485;}.cls-13{fill:#444176;}.cls-14{fill:url(#linear-gradient-3);}.cls-15{fill:#f1d2d7;}.cls-16{fill:url(#linear-gradient-4);}.cls-17{fill:#53526b;}.cls-18{opacity:0.05;}.cls-19{fill:#5f5d7e;}.cls-20{opacity:0.02;}.cls-21{fill:#e82127;}.cls-22{fill:#d6dbe6;}.cls-23{fill:#fdc2cc;}.cls-24{fill:#865a61;}.cls-25{fill:url(#linear-gradient-5);}.cls-26{fill:url(#linear-gradient-6);}.cls-27{fill:#555388;}</style><linearGradient id="linear-gradient" x1="514.28" y1="49.42" x2="514.28" y2="804.72" gradientTransform="matrix(1, 0, 0, -1, 0, 844.01)" gradientUnits="userSpaceOnUse"><stop offset="0" stop-color="gray" stop-opacity="0.25"/><stop offset="0.54" stop-color="gray" stop-opacity="0.12"/><stop offset="1" stop-color="gray" stop-opacity="0.1"/></linearGradient><linearGradient id="linear-gradient-2" x1="352.48" y1="335.19" x2="352.48" y2="456.23" gradientTransform="matrix(1, 0, 0, -1, -43.2, 820.15)" xlink:href="#linear-gradient"/><linearGradient id="linear-gradient-3" x1="301" y1="155.68" x2="403.49" y2="155.68" gradientTransform="matrix(1, 0, 0, -1, -43.2, 820.15)" xlink:href="#linear-gradient"/><linearGradient id="linear-gradient-4" x1="1665.16" y1="-23.93" x2="1665.16" y2="519.11" gradientTransform="translate(2324.79 820.15) rotate(180)" xlink:href="#linear-gradient"/><linearGradient id="linear-gradient-5" x1="478.6" y1="275.88" x2="478.6" y2="789.28" gradientTransform="matrix(1, 0, 0, -1, -43.2, 820.15)" xlink:href="#linear-gradient"/><linearGradient id="linear-gradient-6" x1="-1788.33" y1="576.3" x2="-1788.33" y2="697.02" gradientTransform="translate(-1483.94 820.15) rotate(180)" xlink:href="#linear-gradient"/></defs><title>dashboard-logs-more</title><g id="Layer_2" data-name="Layer 2"><g id="_80df28fc-b448-4013-8ee3-62e531de40a8" data-name="80df28fc-b448-4013-8ee3-62e531de40a8"><path class="cls-1" d="M1047,458.23c-39.15,53.72-26.23,130.4-3.6,191.49,7.58,20.45,16.19,42.08,12.26,64.33-4.8,27.2-27.36,47.58-50.81,58.68-42.75,20.23-93.25,17-131.49-8.49-33-22-56.23-58.56-89.87-79.51-56.3-35.05-129.39-19.39-192,7.37-44.33,18.93-92.89,43.31-136.09,25.83-30.4-12.3-50.87-43.61-61.64-77.08-5.2-16.16-8.84-33.7-19.2-46.35-6.16-7.52-14.3-12.76-22.67-17.14-76.39-40-174.65-15-248.71-59.63-50-30.14-81.12-88.63-94-150.12S-.65,241.21,4.5,177.41C8.16,132.07,14,83.62,41.21,48,70,10.32,118.36-4.65,161.57,1.25s82,29.9,115.84,58.55C319.8,95.54,358.8,140.41,411.52,154c35.91,9.24,74.06,2.7,111.39-.19,62.4-4.82,124.58.73,186.38,7,59.16,6,118.73,12.7,174.76,32.37,39.65,13.92,71.08,40.23,108.41,58.21,24.33,11.72,51.1,14.44,74,29.58,28.26,18.65,53.8,51.69,45.51,91.34C1104.14,410,1067.8,429.72,1047,458.23Z"/><rect class="cls-2" x="201.28" y="39.3" width="626" height="755.3"/><rect class="cls-3" x="209.28" y="48.96" width="610" height="736"/><rect class="cls-4" x="446.28" y="131.96" width="246" height="12"/><rect class="cls-4" x="446.28" y="169.96" width="246" height="12"/><rect class="cls-5" x="505.28" y="207.96" width="128" height="12"/><rect class="cls-6" x="446.28" y="372.96" width="246" height="12"/><rect class="cls-6" x="446.28" y="410.96" width="246" height="12"/><rect class="cls-7" x="505.28" y="448.96" width="128" height="12"/><rect class="cls-6" x="446.28" y="613.96" width="246" height="12"/><rect class="cls-6" x="446.28" y="651.96" width="246" height="12"/><rect class="cls-7" x="505.28" y="689.96" width="128" height="12"/><g class="cls-8"><path class="cls-4" d="M378.28,417a67.67,67.67,0,0,1-16.37,44.25c-.52.61-1.06,1.21-1.61,1.8q-.41.45-.84.9a67.66,67.66,0,0,1-7.26,6.59l-.18.13a66.38,66.38,0,0,1-12.9,7.92h0a68.73,68.73,0,0,1-7.24,2.9l-.91.29c-.56.19-1.14.36-1.71.52l-.23.07a68.46,68.46,0,0,1-37.55,0h-.1c-1-.29-2-.59-2.92-.92l-.85-.3a66.81,66.81,0,0,1-9.4-4.16l-.19-.1a68.62,68.62,0,0,1-13.32-9.43l-.33-.31a63.28,63.28,0,0,1-5.81-6c-.24-.27-.47-.55-.7-.83-.44-.52-.86-1.06-1.28-1.6A68,68,0,1,1,378.28,417Z"/><path class="cls-9" d="M359.67,439.89l-5.16-2.32a20.8,20.8,0,0,0,.1-2.36,16.68,16.68,0,0,0,0-2c-.51-5.26-3.86-9.84-6.23-14.65a41.56,41.56,0,0,1-4.07-14c-.63-6,0-12.22-2.2-17.86-1.79-4.55-5.33-8.35-9.12-11.71a46,46,0,0,0-14.65-9.29c-5.54-2-11.91-2.51-17.45-.47-5,1.84-8.85,5.51-12.57,9.08a42,42,0,0,0-7.1,8.08c-2.27,3.72-3.24,8-4,12.22A186.52,186.52,0,0,0,274.76,415c-.39,5.71-1,12.19-5.88,15.69-2.38,1.71-5.73,2.67-6.82,5.26a5.37,5.37,0,0,0-.36,2.45,9,9,0,0,0,.15,2.07c.07.4.15.79.25,1.19a86.65,86.65,0,0,0-3.52,10.68c-.73,2.7-1.4,5.35-2,7.92h2.48l9.32.22h.13l10,.23h.05l9.32.22h.23l2.69.19h.88L329,462h.2l2.48.06h.87l7.46.17h0l11,.25H351l8.28.2h2.58l-.44-8.68C363.28,440.72,359.67,439.89,359.67,439.89Zm-41.87-1.06c0,7.36-7.88,16.37-7.88,16.37L302,444.4l.29-.42,7.64,10.4s7.88-9,7.88-16.37a7.25,7.25,0,0,1,.63-1.08l.18.56A10.6,10.6,0,0,0,317.8,438.83Zm12.12,28.88a6,6,0,0,0-.07-1.12c-.07-.37-.06-.7-.11-1.06s-.09-.71-.14-1.07-.12-.71-.19-1.07-.14-.71-.22-1.07a1.68,1.68,0,0,0-.08-.36q-.17-.7-.36-1.41c-.13-.47-.21-.76-.33-1.13a1.54,1.54,0,0,0-.16-.5c-.06-.16-.17-.54-.26-.81l-.18-.52c-.08-.23-.16-.47-.25-.7-.15-.42-.31-.83-.47-1.25s-.33-.83-.5-1.24c-.34-.84-.71-1.67-1.08-2.51-1.45-3.24-3.08-6.43-4.58-9.59a52.5,52.5,0,0,1-2.14-5.08l-.19.25a11.48,11.48,0,0,0-.81,1.35c0,7.36-7.88,16.37-7.88,16.37L302,444.39l-6.94,10c-1,.5-2,2.2-2.78,4.62-.22.65-.43,1.37-.63,2.12-.14.51-.27,1-.39,1.57-.07.27-.13.54-.19.82l-.18.85v.13c-.12.58-.24,1.18-.35,1.79s-.24,1.31-.35,2q-.12.65-.21,1.29c-.14.83-.26,1.67-.38,2.51-.07.49-.14,1-.2,1.45l-.24,1.86c.51,1.53,1.08,3,1.67,4.54a6.91,6.91,0,0,1,.65,2.57,72.88,72.88,0,0,0,37.55,0v-.09a11,11,0,0,1-.24-2.55h0a65.94,65.94,0,0,1,1-7.16,24.43,24.43,0,0,0,.19-3.52v-.42c0-.38,0-.72-.05-1Zm0,0a6,6,0,0,0-.07-1.12c-.07-.37-.06-.7-.11-1.06s-.09-.71-.14-1.07-.12-.71-.19-1.07-.14-.71-.22-1.07a1.68,1.68,0,0,0-.08-.36q-.17-.7-.36-1.41c-.13-.47-.21-.76-.33-1.13a1.54,1.54,0,0,0-.16-.5c-.06-.16-.17-.54-.26-.81l-.18-.52c-.08-.23-.16-.47-.25-.7-.15-.42-.31-.83-.47-1.25s-.33-.83-.5-1.24c-.34-.84-.71-1.67-1.08-2.51-1.45-3.24-3.08-6.43-4.58-9.59a52.5,52.5,0,0,1-2.14-5.08l-.19.25a11.48,11.48,0,0,0-.81,1.35c0,7.36-7.88,16.37-7.88,16.37L302,444.39l-6.94,10c-1,.5-2,2.2-2.78,4.62-.22.65-.43,1.37-.63,2.12-.14.51-.27,1-.39,1.57-.07.27-.13.54-.19.82l-.18.85v.13c-.12.58-.24,1.18-.35,1.79s-.24,1.31-.35,2q-.12.65-.21,1.29c-.14.83-.26,1.67-.38,2.51-.07.49-.14,1-.2,1.45l-.24,1.86c.51,1.53,1.08,3,1.67,4.54a6.91,6.91,0,0,1,.65,2.57,72.88,72.88,0,0,0,37.55,0v-.09a11,11,0,0,1-.24-2.55h0a65.94,65.94,0,0,1,1-7.16,24.43,24.43,0,0,0,.19-3.52v-.42c0-.38,0-.72-.05-1Zm0,0a6,6,0,0,0-.07-1.12c-.07-.37-.06-.7-.11-1.06s-.09-.71-.14-1.07-.12-.71-.19-1.07-.14-.71-.22-1.07a1.68,1.68,0,0,0-.08-.36q-.17-.7-.36-1.41c-.13-.47-.21-.76-.33-1.13a1.54,1.54,0,0,0-.16-.5c-.06-.16-.17-.54-.26-.81l-.18-.52c-.08-.23-.16-.47-.25-.7-.15-.42-.31-.83-.47-1.25s-.33-.83-.5-1.24c-.34-.84-.71-1.67-1.08-2.51-1.45-3.24-3.08-6.43-4.58-9.59a52.5,52.5,0,0,1-2.14-5.08l-.19.25a11.48,11.48,0,0,0-.81,1.35c0,7.36-7.88,16.37-7.88,16.37L302,444.39l-6.94,10c-1,.5-2,2.2-2.78,4.62-.22.65-.43,1.37-.63,2.12-.14.51-.27,1-.39,1.57-.07.27-.13.54-.19.82l-.18.85v.13c-.12.58-.24,1.18-.35,1.79s-.24,1.31-.35,2q-.12.65-.21,1.29c-.14.83-.26,1.67-.38,2.51-.07.49-.14,1-.2,1.45l-.24,1.86c.51,1.53,1.08,3,1.67,4.54a6.91,6.91,0,0,1,.65,2.57,72.88,72.88,0,0,0,37.55,0v-.09a11,11,0,0,1-.24-2.55h0a65.94,65.94,0,0,1,1-7.16,24.43,24.43,0,0,0,.19-3.52v-.42c0-.38,0-.72-.05-1Zm0,0a6,6,0,0,0-.07-1.12c-.07-.37-.06-.7-.11-1.06s-.09-.71-.14-1.07-.12-.71-.19-1.07-.14-.71-.22-1.07a1.68,1.68,0,0,0-.08-.36q-.17-.7-.36-1.41c-.13-.47-.21-.76-.33-1.13a1.54,1.54,0,0,0-.16-.5c-.06-.16-.17-.54-.26-.81l-.18-.52c-.08-.23-.16-.47-.25-.7-.15-.42-.31-.83-.47-1.25s-.33-.83-.5-1.24c-.34-.84-.71-1.67-1.08-2.51-1.45-3.24-3.08-6.43-4.58-9.59a52.5,52.5,0,0,1-2.14-5.08l-.19.25a11.48,11.48,0,0,0-.81,1.35c0,7.36-7.88,16.37-7.88,16.37L302,444.39l-6.94,10c-1,.5-2,2.2-2.78,4.62-.22.65-.43,1.37-.63,2.12-.14.51-.27,1-.39,1.57-.07.27-.13.54-.19.82l-.18.85v.13c-.12.58-.24,1.18-.35,1.79s-.24,1.31-.35,2q-.12.65-.21,1.29c-.14.83-.26,1.67-.38,2.51-.07.49-.14,1-.2,1.45l-.24,1.86c.51,1.53,1.08,3,1.67,4.54a6.91,6.91,0,0,1,.65,2.57,72.88,72.88,0,0,0,37.55,0v-.09a11,11,0,0,1-.24-2.55h0a65.94,65.94,0,0,1,1-7.16,24.43,24.43,0,0,0,.19-3.52v-.42c0-.38,0-.72-.05-1Z"/><rect class="cls-10" x="284.28" y="397.96" width="46" height="31"/><path class="cls-11" d="M337.92,432.15l-19.25,27.12-20.12-1.75s-26.25,1.74-8.75-18.37c8.41-9.67,11.16-17.73,11.75-23.48.64-6.22-1.25-9.76-1.25-9.76l21.87-2.62a16.3,16.3,0,0,0-.36,9.13C324.55,423.78,337.92,432.15,337.92,432.15Z"/><path class="cls-12" d="M321.8,412.39a21.89,21.89,0,0,1-20.26,3.26c.64-6.22-1.25-9.76-1.25-9.76l21.87-2.62A16.36,16.36,0,0,0,321.8,412.39Z"/><circle class="cls-11" cx="308.61" cy="394.08" r="21.87"/><path class="cls-12" d="M337.12,433.27l-.51-2-.44-1.76-.65-2.6-.12-.48-.1-.4s.52-1.57-2.91-1.06l-.64.11c-.54.11-1.17.26-1.89.46l-.65.2-.86.27h0a18.61,18.61,0,0,0-7.26,4.38,16,16,0,0,0-2.43,2.94l-.18.27a8.1,8.1,0,0,0-.63,1.16c0,7.88-7.88,17.5-7.88,17.5l-7.69-11.11-.15-.22-1.83-2.66-.65-.86-.22-.3-4-5.37-1-1.34-.33-.45-.49-.65-1.15-1.53L288,430.4l-6,3.5-3.5,22.75v.63l.11,1.88.73,12.36v.17L278,476.81l.19.1a65.68,65.68,0,0,0,9.4,4.16l.85.3c1,.33,1.94.63,2.92.92a3,3,0,0,1,.08.45v-.43a68.46,68.46,0,0,0,37.55,0l.23-.07c.57-.16,1.15-.33,1.71-.52l.91-.29a68.73,68.73,0,0,0,7.24-2.9l.84-17.9.6-12.91V447Z"/><path class="cls-3" d="M329.92,466.52a6.91,6.91,0,0,0-.07-1.2c-.07-.4-.06-.75-.11-1.13s-.09-.76-.14-1.14-.12-.76-.19-1.14-.14-.76-.22-1.14a1.72,1.72,0,0,0-.08-.38c-.11-.5-.23-1-.36-1.51s-.21-.81-.33-1.21a1.7,1.7,0,0,0-.16-.53c-.06-.17-.17-.58-.26-.87l-.18-.56c-.08-.25-.16-.5-.25-.75-.15-.45-.31-.89-.47-1.34s-.33-.89-.5-1.33c-.34-.9-.71-1.79-1.08-2.68-1.45-3.46-3.08-6.87-4.58-10.25a57.16,57.16,0,0,1-2.14-5.43l-.19.27a12.67,12.67,0,0,0-.81,1.44c0,7.87-7.88,17.5-7.88,17.5L302,441.59l-6.94,10.67c-1,.53-2,2.35-2.78,4.94-.22.7-.43,1.46-.63,2.27-.14.54-.27,1.11-.39,1.68-.07.29-.13.58-.19.88l-.18.91v.14c-.12.62-.24,1.26-.35,1.91s-.24,1.4-.35,2.11q-.12.69-.21,1.38c-.14.89-.26,1.79-.38,2.68-.07.52-.14,1-.2,1.55l-.24,2c.51,1.64,1.08,3.26,1.67,4.85a7.9,7.9,0,0,1,.65,2.75,68.46,68.46,0,0,0,37.55,0v-.1a12,12,0,0,1-.24-2.73h0a75.49,75.49,0,0,1,1-7.65,27.86,27.86,0,0,0,.19-3.76v-.45C329.94,467.24,329.93,466.88,329.92,466.52Zm0,0a6.91,6.91,0,0,0-.07-1.2c-.07-.4-.06-.75-.11-1.13s-.09-.76-.14-1.14-.12-.76-.19-1.14-.14-.76-.22-1.14a1.72,1.72,0,0,0-.08-.38c-.11-.5-.23-1-.36-1.51s-.21-.81-.33-1.21a1.7,1.7,0,0,0-.16-.53c-.06-.17-.17-.58-.26-.87l-.18-.56c-.08-.25-.16-.5-.25-.75-.15-.45-.31-.89-.47-1.34s-.33-.89-.5-1.33c-.34-.9-.71-1.79-1.08-2.68-1.45-3.46-3.08-6.87-4.58-10.25a57.16,57.16,0,0,1-2.14-5.43l-.19.27a12.67,12.67,0,0,0-.81,1.44c0,7.87-7.88,17.5-7.88,17.5L302,441.59l-6.94,10.67c-1,.53-2,2.35-2.78,4.94-.22.7-.43,1.46-.63,2.27-.14.54-.27,1.11-.39,1.68-.07.29-.13.58-.19.88l-.18.91v.14c-.12.62-.24,1.26-.35,1.91s-.24,1.4-.35,2.11q-.12.69-.21,1.38c-.14.89-.26,1.79-.38,2.68-.07.52-.14,1-.2,1.55l-.24,2c.51,1.64,1.08,3.26,1.67,4.85a7.9,7.9,0,0,1,.65,2.75,68.46,68.46,0,0,0,37.55,0v-.1a12,12,0,0,1-.24-2.73h0a75.49,75.49,0,0,1,1-7.65,27.86,27.86,0,0,0,.19-3.76v-.45C329.94,467.24,329.93,466.88,329.92,466.52Zm0,0a6.91,6.91,0,0,0-.07-1.2c-.07-.4-.06-.75-.11-1.13s-.09-.76-.14-1.14-.12-.76-.19-1.14-.14-.76-.22-1.14a1.72,1.72,0,0,0-.08-.38c-.11-.5-.23-1-.36-1.51s-.21-.81-.33-1.21a1.7,1.7,0,0,0-.16-.53c-.06-.17-.17-.58-.26-.87l-.18-.56c-.08-.25-.16-.5-.25-.75-.15-.45-.31-.89-.47-1.34s-.33-.89-.5-1.33c-.34-.9-.71-1.79-1.08-2.68-1.45-3.46-3.08-6.87-4.58-10.25a57.16,57.16,0,0,1-2.14-5.43l-.19.27a12.67,12.67,0,0,0-.81,1.44c0,7.87-7.88,17.5-7.88,17.5L302,441.59l-6.94,10.67c-1,.53-2,2.35-2.78,4.94-.22.7-.43,1.46-.63,2.27-.14.54-.27,1.11-.39,1.68-.07.29-.13.58-.19.88l-.18.91v.14c-.12.62-.24,1.26-.35,1.91s-.24,1.4-.35,2.11q-.12.69-.21,1.38c-.14.89-.26,1.79-.38,2.68-.07.52-.14,1-.2,1.55l-.24,2c.51,1.64,1.08,3.26,1.67,4.85a7.9,7.9,0,0,1,.65,2.75,68.46,68.46,0,0,0,37.55,0v-.1a12,12,0,0,1-.24-2.73h0a75.49,75.49,0,0,1,1-7.65,27.86,27.86,0,0,0,.19-3.76v-.45C329.94,467.24,329.93,466.88,329.92,466.52Zm10.6-18.77L337,433.5l-.61-2.44-.17-.67h0l-.87-3.48v-.09h0a.77.77,0,0,0-.07-.45c-.13-.26-.46-.53-1.23-.6a6.46,6.46,0,0,0-.88,0h0a14,14,0,0,0-2.57.48c-.41.11-.85.23-1.32.38l-.86.27h-.08a19,19,0,0,0-6.3,3.5,16.58,16.58,0,0,0-3.2,3.54l-.19.27a12.67,12.67,0,0,0-.81,1.44c0,7.87-7.88,17.5-7.88,17.5L302,441.6l-.45-.65-.08-.11-1.15-1.69-.87-1.16-.23-.3-4.1-5.47h0l-1.3-1.77v-.06l-.45-.61-.86-1.14-3,1.75-7.5,4.37-3.46,22.51v.24l.1,1.64.74,12.53v.71l-1.13,4.51a66.81,66.81,0,0,0,9.4,4.16l.85.3c1,.33,1.94.63,2.92.92a3,3,0,0,1,.08.45v-.43a68.46,68.46,0,0,0,37.55,0l.23-.07c.57-.16,1.15-.33,1.71-.52l.91-.29a68.73,68.73,0,0,0,7.24-2.9h0l.83-17.88.6-12.77Zm-49.18,34.53a3,3,0,0,1,.08.45v-.43Zm38.58-15.76a6.91,6.91,0,0,0-.07-1.2c-.07-.4-.06-.75-.11-1.13s-.09-.76-.14-1.14-.12-.76-.19-1.14-.14-.76-.22-1.14a1.72,1.72,0,0,0-.08-.38c-.11-.5-.23-1-.36-1.51s-.21-.81-.33-1.21a1.7,1.7,0,0,0-.16-.53c-.06-.17-.17-.58-.26-.87l-.18-.56c-.08-.25-.16-.5-.25-.75-.15-.45-.31-.89-.47-1.34s-.33-.89-.5-1.33c-.34-.9-.71-1.79-1.08-2.68-1.45-3.46-3.08-6.87-4.58-10.25a57.16,57.16,0,0,1-2.14-5.43l-.19.27a12.67,12.67,0,0,0-.81,1.44c0,7.87-7.88,17.5-7.88,17.5L302,441.59l-6.94,10.67c-1,.53-2,2.35-2.78,4.94-.22.7-.43,1.46-.63,2.27-.14.54-.27,1.11-.39,1.68-.07.29-.13.58-.19.88l-.18.91v.14c-.12.62-.24,1.26-.35,1.91s-.24,1.4-.35,2.11q-.12.69-.21,1.38c-.14.89-.26,1.79-.38,2.68-.07.52-.14,1-.2,1.55l-.24,2c.51,1.64,1.08,3.26,1.67,4.85a7.9,7.9,0,0,1,.65,2.75,68.46,68.46,0,0,0,37.55,0v-.1a12,12,0,0,1-.24-2.73h0a75.49,75.49,0,0,1,1-7.65,27.86,27.86,0,0,0,.19-3.76v-.45C329.94,467.24,329.93,466.88,329.92,466.52Zm0,0a6.91,6.91,0,0,0-.07-1.2c-.07-.4-.06-.75-.11-1.13s-.09-.76-.14-1.14-.12-.76-.19-1.14-.14-.76-.22-1.14a1.72,1.72,0,0,0-.08-.38c-.11-.5-.23-1-.36-1.51s-.21-.81-.33-1.21a1.7,1.7,0,0,0-.16-.53c-.06-.17-.17-.58-.26-.87l-.18-.56c-.08-.25-.16-.5-.25-.75-.15-.45-.31-.89-.47-1.34s-.33-.89-.5-1.33c-.34-.9-.71-1.79-1.08-2.68-1.45-3.46-3.08-6.87-4.58-10.25a57.16,57.16,0,0,1-2.14-5.43l-.19.27a12.67,12.67,0,0,0-.81,1.44c0,7.87-7.88,17.5-7.88,17.5L302,441.59l-6.94,10.67c-1,.53-2,2.35-2.78,4.94-.22.7-.43,1.46-.63,2.27-.14.54-.27,1.11-.39,1.68-.07.29-.13.58-.19.88l-.18.91v.14c-.12.62-.24,1.26-.35,1.91s-.24,1.4-.35,2.11q-.12.69-.21,1.38c-.14.89-.26,1.79-.38,2.68-.07.52-.14,1-.2,1.55l-.24,2c.51,1.64,1.08,3.26,1.67,4.85a7.9,7.9,0,0,1,.65,2.75,68.46,68.46,0,0,0,37.55,0v-.1a12,12,0,0,1-.24-2.73h0a75.49,75.49,0,0,1,1-7.65,27.86,27.86,0,0,0,.19-3.76v-.45C329.94,467.24,329.93,466.88,329.92,466.52Zm0,0a6.91,6.91,0,0,0-.07-1.2c-.07-.4-.06-.75-.11-1.13s-.09-.76-.14-1.14-.12-.76-.19-1.14-.14-.76-.22-1.14a1.72,1.72,0,0,0-.08-.38c-.11-.5-.23-1-.36-1.51s-.21-.81-.33-1.21a1.7,1.7,0,0,0-.16-.53c-.06-.17-.17-.58-.26-.87l-.18-.56c-.08-.25-.16-.5-.25-.75-.15-.45-.31-.89-.47-1.34s-.33-.89-.5-1.33c-.34-.9-.71-1.79-1.08-2.68-1.45-3.46-3.08-6.87-4.58-10.25a57.16,57.16,0,0,1-2.14-5.43l-.19.27a12.67,12.67,0,0,0-.81,1.44c0,7.87-7.88,17.5-7.88,17.5L302,441.59l-6.94,10.67c-1,.53-2,2.35-2.78,4.94-.22.7-.43,1.46-.63,2.27-.14.54-.27,1.11-.39,1.68-.07.29-.13.58-.19.88l-.18.91v.14c-.12.62-.24,1.26-.35,1.91s-.24,1.4-.35,2.11q-.12.69-.21,1.38c-.14.89-.26,1.79-.38,2.68-.07.52-.14,1-.2,1.55l-.24,2c.51,1.64,1.08,3.26,1.67,4.85a7.9,7.9,0,0,1,.65,2.75,68.46,68.46,0,0,0,37.55,0v-.1a12,12,0,0,1-.24-2.73h0a75.49,75.49,0,0,1,1-7.65,27.86,27.86,0,0,0,.19-3.76v-.45C329.94,467.24,329.93,466.88,329.92,466.52Zm0,0a6.91,6.91,0,0,0-.07-1.2c-.07-.4-.06-.75-.11-1.13s-.09-.76-.14-1.14-.12-.76-.19-1.14-.14-.76-.22-1.14a1.72,1.72,0,0,0-.08-.38c-.11-.5-.23-1-.36-1.51s-.21-.81-.33-1.21a1.7,1.7,0,0,0-.16-.53c-.06-.17-.17-.58-.26-.87l-.18-.56c-.08-.25-.16-.5-.25-.75-.15-.45-.31-.89-.47-1.34s-.33-.89-.5-1.33c-.34-.9-.71-1.79-1.08-2.68-1.45-3.46-3.08-6.87-4.58-10.25a57.16,57.16,0,0,1-2.14-5.43l-.19.27a12.67,12.67,0,0,0-.81,1.44c0,7.87-7.88,17.5-7.88,17.5L302,441.59l-6.94,10.67c-1,.53-2,2.35-2.78,4.94-.22.7-.43,1.46-.63,2.27-.14.54-.27,1.11-.39,1.68-.07.29-.13.58-.19.88l-.18.91v.14c-.12.62-.24,1.26-.35,1.91s-.24,1.4-.35,2.11q-.12.69-.21,1.38c-.14.89-.26,1.79-.38,2.68-.07.52-.14,1-.2,1.55l-.24,2c.51,1.64,1.08,3.26,1.67,4.85a7.9,7.9,0,0,1,.65,2.75,68.46,68.46,0,0,0,37.55,0v-.1a12,12,0,0,1-.24-2.73h0a75.49,75.49,0,0,1,1-7.65,27.86,27.86,0,0,0,.19-3.76v-.45C329.94,467.24,329.93,466.88,329.92,466.52Zm0,0a6.91,6.91,0,0,0-.07-1.2c-.07-.4-.06-.75-.11-1.13s-.09-.76-.14-1.14-.12-.76-.19-1.14-.14-.76-.22-1.14a1.72,1.72,0,0,0-.08-.38c-.11-.5-.23-1-.36-1.51s-.21-.81-.33-1.21a1.7,1.7,0,0,0-.16-.53c-.06-.17-.17-.58-.26-.87l-.18-.56c-.08-.25-.16-.5-.25-.75-.15-.45-.31-.89-.47-1.34s-.33-.89-.5-1.33c-.34-.9-.71-1.79-1.08-2.68-1.45-3.46-3.08-6.87-4.58-10.25a57.16,57.16,0,0,1-2.14-5.43l-.19.27a12.67,12.67,0,0,0-.81,1.44c0,7.87-7.88,17.5-7.88,17.5L302,441.59l-6.94,10.67c-1,.53-2,2.35-2.78,4.94-.22.7-.43,1.46-.63,2.27-.14.54-.27,1.11-.39,1.68-.07.29-.13.58-.19.88l-.18.91v.14c-.12.62-.24,1.26-.35,1.91s-.24,1.4-.35,2.11q-.12.69-.21,1.38c-.14.89-.26,1.79-.38,2.68-.07.52-.14,1-.2,1.55l-.24,2c.51,1.64,1.08,3.26,1.67,4.85a7.9,7.9,0,0,1,.65,2.75,68.46,68.46,0,0,0,37.55,0v-.1a12,12,0,0,1-.24-2.73h0a75.49,75.49,0,0,1,1-7.65,27.86,27.86,0,0,0,.19-3.76v-.45C329.94,467.24,329.93,466.88,329.92,466.52Zm0,0a6.91,6.91,0,0,0-.07-1.2c-.07-.4-.06-.75-.11-1.13s-.09-.76-.14-1.14-.12-.76-.19-1.14-.14-.76-.22-1.14a1.72,1.72,0,0,0-.08-.38c-.11-.5-.23-1-.36-1.51s-.21-.81-.33-1.21a1.7,1.7,0,0,0-.16-.53c-.06-.17-.17-.58-.26-.87l-.18-.56c-.08-.25-.16-.5-.25-.75-.15-.45-.31-.89-.47-1.34s-.33-.89-.5-1.33c-.34-.9-.71-1.79-1.08-2.68-1.45-3.46-3.08-6.87-4.58-10.25a57.16,57.16,0,0,1-2.14-5.43l-.19.27a12.67,12.67,0,0,0-.81,1.44c0,7.87-7.88,17.5-7.88,17.5L302,441.59l-6.94,10.67c-1,.53-2,2.35-2.78,4.94-.22.7-.43,1.46-.63,2.27-.14.54-.27,1.11-.39,1.68-.07.29-.13.58-.19.88l-.18.91v.14c-.12.62-.24,1.26-.35,1.91s-.24,1.4-.35,2.11q-.12.69-.21,1.38c-.14.89-.26,1.79-.38,2.68-.07.52-.14,1-.2,1.55l-.24,2c.51,1.64,1.08,3.26,1.67,4.85a7.9,7.9,0,0,1,.65,2.75,68.46,68.46,0,0,0,37.55,0v-.1a12,12,0,0,1-.24-2.73h0a75.49,75.49,0,0,1,1-7.65,27.86,27.86,0,0,0,.19-3.76v-.45C329.94,467.24,329.93,466.88,329.92,466.52Zm0,0a6.91,6.91,0,0,0-.07-1.2c-.07-.4-.06-.75-.11-1.13s-.09-.76-.14-1.14-.12-.76-.19-1.14-.14-.76-.22-1.14a1.72,1.72,0,0,0-.08-.38c-.11-.5-.23-1-.36-1.51s-.21-.81-.33-1.21a1.7,1.7,0,0,0-.16-.53c-.06-.17-.17-.58-.26-.87l-.18-.56c-.08-.25-.16-.5-.25-.75-.15-.45-.31-.89-.47-1.34s-.33-.89-.5-1.33c-.34-.9-.71-1.79-1.08-2.68-1.45-3.46-3.08-6.87-4.58-10.25a57.16,57.16,0,0,1-2.14-5.43l-.19.27a12.67,12.67,0,0,0-.81,1.44c0,7.87-7.88,17.5-7.88,17.5L302,441.59l-6.94,10.67c-1,.53-2,2.35-2.78,4.94-.22.7-.43,1.46-.63,2.27-.14.54-.27,1.11-.39,1.68-.07.29-.13.58-.19.88l-.18.91v.14c-.12.62-.24,1.26-.35,1.91s-.24,1.4-.35,2.11q-.12.69-.21,1.38c-.14.89-.26,1.79-.38,2.68-.07.52-.14,1-.2,1.55l-.24,2c.51,1.64,1.08,3.26,1.67,4.85a7.9,7.9,0,0,1,.65,2.75,68.46,68.46,0,0,0,37.55,0v-.1a12,12,0,0,1-.24-2.73h0a75.49,75.49,0,0,1,1-7.65,27.86,27.86,0,0,0,.19-3.76v-.45C329.94,467.24,329.93,466.88,329.92,466.52Zm0,0a6.91,6.91,0,0,0-.07-1.2c-.07-.4-.06-.75-.11-1.13s-.09-.76-.14-1.14-.12-.76-.19-1.14-.14-.76-.22-1.14a1.72,1.72,0,0,0-.08-.38c-.11-.5-.23-1-.36-1.51s-.21-.81-.33-1.21a1.7,1.7,0,0,0-.16-.53c-.06-.17-.17-.58-.26-.87l-.18-.56c-.08-.25-.16-.5-.25-.75-.15-.45-.31-.89-.47-1.34s-.33-.89-.5-1.33c-.34-.9-.71-1.79-1.08-2.68-1.45-3.46-3.08-6.87-4.58-10.25a57.16,57.16,0,0,1-2.14-5.43l-.19.27a12.67,12.67,0,0,0-.81,1.44c0,7.87-7.88,17.5-7.88,17.5L302,441.59l-6.94,10.67c-1,.53-2,2.35-2.78,4.94-.22.7-.43,1.46-.63,2.27-.14.54-.27,1.11-.39,1.68-.07.29-.13.58-.19.88l-.18.91v.14c-.12.62-.24,1.26-.35,1.91s-.24,1.4-.35,2.11q-.12.69-.21,1.38c-.14.89-.26,1.79-.38,2.68-.07.52-.14,1-.2,1.55l-.24,2c.51,1.64,1.08,3.26,1.67,4.85a7.9,7.9,0,0,1,.65,2.75,68.46,68.46,0,0,0,37.55,0v-.1a12,12,0,0,1-.24-2.73h0a75.49,75.49,0,0,1,1-7.65,27.86,27.86,0,0,0,.19-3.76v-.45C329.94,467.24,329.93,466.88,329.92,466.52Z"/><path class="cls-12" d="M302.13,440.92l-.67-.09a25.68,25.68,0,0,1-3-.6l-.37-.1c-2.44-.69-5.11-1.93-5.71-4.11a3.85,3.85,0,0,1,.06-2.13,18.24,18.24,0,0,1,1.36-3.44v-.06a4.79,4.79,0,0,1,.25-.45,9.91,9.91,0,0,1,3.61-3.93l-1.2.19h0l-10.16,1.65-15.75,2.54s-2.8-.56-6.61,9.94a1.62,1.62,0,0,1-.13.39c-.92,2.57-1.89,5.78-2.89,9.79-.69,2.78-1.32,5.51-1.9,8.16-.17.8-.34,1.59-.5,2.37a63.28,63.28,0,0,0,5.81,6l.33.31A68.62,68.62,0,0,0,278,476.78l.19.1a65.68,65.68,0,0,0,9.4,4.16l.85.3c.18-1.85.38-3.9.62-6a1.71,1.71,0,0,1,.08-.63l.24-2c.06-.51.13-1,.2-1.55.12-.89.24-1.79.38-2.68q.09-.69.21-1.38c.11-.71.23-1.42.35-2.11s.23-1.29.35-1.91v-.14L291,462c.06-.3.12-.59.19-.88.12-.57.25-1.14.39-1.68.2-.81.41-1.57.63-2.27.8-2.59,1.73-4.41,2.78-4.94L302,441.59l.29-.45.13-.2Z"/><path class="cls-13" d="M301.54,440.94l-7.37,11.32c-1,.51-1.94,2.28-2.73,4.79-.23.74-.46,1.55-.68,2.4a117.76,117.76,0,0,0-2.26,13.09,1.55,1.55,0,0,1-.08.6c-.34,2.78-.62,5.51-.85,7.92a65.68,65.68,0,0,1-9.4-4.16l-.19-.1a68.62,68.62,0,0,1-13.32-9.43l-.33-.31a63.28,63.28,0,0,1-5.81-6c-.24-.27-.47-.55-.7-.83.11-.52.22-1,.34-1.56.57-2.65,1.2-5.37,1.89-8.14a99,99,0,0,1,3.4-11.2,3.05,3.05,0,0,1,.13-.32c3.54-9.11,6.09-8.6,6.09-8.6l16.63-2.68,10.5-1.7-.33.19h0a10.61,10.61,0,0,0-2.89,3.08l-.29.49c-.12.19-.23.4-.35.61a17.34,17.34,0,0,0-1.38,3.5,3.7,3.7,0,0,0,.24,2.86c1,1.94,3.84,3,6.17,3.58l.39.1A26.29,26.29,0,0,0,301.54,440.94Z"/><path class="cls-12" d="M359.33,461.15l-.41-8.88c1.75-14-1.75-14.87-1.75-14.87l-4.16-2h-.11l-16.73-8.11-.65-.32-.2-.09h0l-2.18-1.06h0l-1.38-.67-2.58-1.25-.87-.42V427c0,1,.09,2.17.17,3.53.18,3.42.51,8,1.1,13.4.33,3.13.75,6.55,1.27,10.22.31,2.17.53,4.33.67,6.44a113.19,113.19,0,0,1-.66,21.3l.91-.29a68.73,68.73,0,0,0,7.24-2.9h0a66.38,66.38,0,0,0,12.9-7.92l.18-.13a67.66,67.66,0,0,0,7.26-6.59Z"/><path class="cls-13" d="M360.21,461.15l-.41-8.9c1.75-14-1.75-14.87-1.75-14.87l-5-2.42H353l-16.78-8.14-.77-.37-.15-.07-1.23-.6-1.63-.79-3.22-1.56v1.42h0v1.76c0,1,.09,2.31.18,3.8.17,3.19.47,7.37,1,12.34.36,3.41.81,7.2,1.4,11.28.31,2.18.53,4.33.66,6.47a113.39,113.39,0,0,1-.62,21,68.73,68.73,0,0,0,7.24-2.9h0a66.38,66.38,0,0,0,12.9-7.92l.18-.13a67.66,67.66,0,0,0,7.26-6.59q.44-.45.84-.9Z"/><path class="cls-12" d="M289.5,370.09c-1,1.38-.92,3.28-1.37,5-1.07,3.91-5.31,6.36-6.28,10.3-.57,2.3.09,4.74-.3,7.08-.71,4.31-4.65,7.23-6.85,11a14.85,14.85,0,0,0-.91,12.9,20.77,20.77,0,0,1,1.27,3.26,11.9,11.9,0,0,1-.31,5c-.75,3.56-1.52,7.48.2,10.69,1.45,2.71,4.46,4.3,7.49,4.8a29.41,29.41,0,0,0,9.17-.42c3.31-.51,6.7-1.1,9.58-2.8l-10.83-26.14c-1.09-2.64-2.21-5.37-2.2-8.23a18.24,18.24,0,0,1,1.35-6.14,53.15,53.15,0,0,1,9-15.55c1.57,1.82,1.45,4.59,2.76,6.61a10.51,10.51,0,0,0,4.46,3.33,149.43,149.43,0,0,0,15.79,6.6,2.07,2.07,0,0,1,1.8,2.31,2.13,2.13,0,0,1-.26.77L319,417.3c-.9,3.71-1.69,8,.62,11s7.52,4.42,7.55,8.29a14.12,14.12,0,0,0,0,1.84c.27,1.81,2.42,2.68,4.25,2.77a12.68,12.68,0,0,0,12.71-10.37c1-6.62-3.38-12.72-5.21-19.17-3.08-10.85,1-23.58-5-33.11-4.9-7.73-13.83-9.83-22.31-10.79C305.59,367.06,293.69,364.56,289.5,370.09Z"/><path class="cls-10" d="M289.5,369.09c-1,1.38-.92,3.28-1.37,5-1.07,3.91-5.31,6.36-6.28,10.3-.57,2.3.09,4.74-.3,7.08-.71,4.31-4.65,7.23-6.85,11a14.85,14.85,0,0,0-.91,12.9,20.77,20.77,0,0,1,1.27,3.26,11.9,11.9,0,0,1-.31,5c-.75,3.56-1.52,7.48.2,10.69,1.45,2.71,4.46,4.3,7.49,4.8a29.41,29.41,0,0,0,9.17-.42c3.31-.51,6.7-1.1,9.58-2.8l-10.83-26.14c-1.09-2.64-2.21-5.37-2.2-8.23a18.24,18.24,0,0,1,1.35-6.14,53.15,53.15,0,0,1,9-15.55c1.57,1.82,1.45,4.59,2.76,6.61a10.51,10.51,0,0,0,4.46,3.33,149.43,149.43,0,0,0,15.79,6.6,2.07,2.07,0,0,1,1.8,2.31,2.13,2.13,0,0,1-.26.77L319,416.3c-.9,3.71-1.69,8,.62,11s7.52,4.42,7.55,8.29a14.12,14.12,0,0,0,0,1.84c.27,1.81,2.42,2.68,4.25,2.77a12.68,12.68,0,0,0,12.71-10.37c1-6.62-3.38-12.72-5.21-19.17-3.08-10.85,1-23.58-5-33.11-4.9-7.73-13.83-9.83-22.31-10.79C305.59,366.06,293.69,363.56,289.5,369.09Z"/></g><g class="cls-8"><path class="cls-4" d="M378.28,658a67.67,67.67,0,0,1-16.37,44.25c-.52.61-1.06,1.21-1.61,1.8q-.41.45-.84.9a67.66,67.66,0,0,1-7.26,6.59l-.18.13a66.38,66.38,0,0,1-12.9,7.92h0a68.73,68.73,0,0,1-7.24,2.9l-.91.29c-.56.19-1.14.36-1.71.52l-.23.07a68.46,68.46,0,0,1-37.55,0h-.1c-1-.29-2-.59-2.92-.92l-.85-.3a65.68,65.68,0,0,1-9.4-4.16l-.19-.1a68.62,68.62,0,0,1-13.32-9.43l-.33-.31a63.28,63.28,0,0,1-5.81-6c-.24-.27-.47-.55-.7-.83-.44-.52-.86-1.06-1.28-1.6A68,68,0,1,1,378.28,658Z"/><path class="cls-14" d="M360.21,701.77l-.41-9c1.75-14.23-1.75-15.12-1.75-15.12l-5-2.46-.1-.05-16.78-8.27-.77-.38-.1-.41s.33-1-1.33-1.17a6.17,6.17,0,0,1-.42-2.55c.17-1.92,1.62-3.43,2.75-5a20.54,20.54,0,0,0,3.29-14.57A34.23,34.23,0,0,0,334,628.71l-.32-.47a17,17,0,0,0,.59-4.42c0-11.51-11.64-20.84-26-20.84-13,0-23.83,7.69-25.71,17.72a8.4,8.4,0,0,0-.79,1.24c-2.64,4.94,1.44,8.63,1.57,13.56.09,3.4-2.19,6.31-4,9.19s-3.15,6.71-1.29,9.55c.61.94,1.53,1.65,2.08,2.63,1.93,3.41-1.28,7.32-2.45,11.06a9.91,9.91,0,0,0-.32,1.33l-7.72,1.26s-2.55-.52-6.09,8.74a2.52,2.52,0,0,0-.13.33A100,100,0,0,0,260,691q-1,4.23-1.89,8.27c-.12.53-.23,1.06-.34,1.59.23.28.46.57.7.84a64.58,64.58,0,0,0,5.81,6.12l.33.32A68.37,68.37,0,0,0,278,717.71l.19.1a66,66,0,0,0,9.4,4.23l.85.3c1,.34,1.94.64,2.92.94a3.4,3.4,0,0,1,.08.46v-.44a67.35,67.35,0,0,0,37.55,0l.23-.07c.57-.16,1.15-.34,1.71-.53l.91-.29a67,67,0,0,0,7.24-2.95h0a66.5,66.5,0,0,0,12.9-8.05l.18-.13a68.77,68.77,0,0,0,7.26-6.7c.29-.3.57-.6.84-.91Z"/><path class="cls-13" d="M283.35,636.94c.09,3.35-2.19,6.21-4,9s-3.15,6.6-1.29,9.39c.61.92,1.53,1.63,2.08,2.59,1.93,3.35-1.28,7.2-2.45,10.88-1.35,4.25.22,9,3.06,12.45s6.76,5.78,10.72,7.83A96.18,96.18,0,0,0,318,698.52c4.84.89,10,1.29,14.54-.65a15.47,15.47,0,0,0,8.73-17c-1.15-5.26-5-9.49-7-14.46a6.79,6.79,0,0,1-.66-3.13c.17-1.89,1.62-3.37,2.75-4.9a20,20,0,0,0,3.24-14.23A33.4,33.4,0,0,0,334,630.29a15,15,0,0,0-4-4.4c-2.18-1.47-4.88-1.89-7.48-2.26-10.86-1.52-22.11-3.18-33.06-3.74-3.46-.18-6,.5-7.71,3.74C279.15,628.46,283.22,632.09,283.35,636.94Z"/><path class="cls-11" d="M339.28,671l-20.61,29.31-20.12-1.75s-.66,7-8.75-18.37c-4.52-14.19,4.67-9.26,6.48-13.19s5-7.4,5.27-10.3c.64-6.22-1.25-9.76-1.25-9.76l21.87-2.62a16.3,16.3,0,0,0-.36,9.13C324.55,664.78,339.28,671,339.28,671Z"/><ellipse class="cls-13" cx="308.28" cy="625.46" rx="26" ry="20.5"/><path class="cls-12" d="M321.8,653.39a21.89,21.89,0,0,1-20.26,3.26c.64-6.22-1.25-9.76-1.25-9.76l21.87-2.62A16.36,16.36,0,0,0,321.8,653.39Z"/><circle class="cls-11" cx="308.61" cy="635.08" r="21.87"/><path class="cls-12" d="M337.12,674.27l-.51-2-.44-1.76-.65-2.6-.12-.48-.1-.4s.52-1.57-2.91-1.06l-.64.11c-.54.11-1.17.26-1.89.46l-.65.2-.86.27h0a18.61,18.61,0,0,0-7.26,4.38,16,16,0,0,0-2.43,2.94l-.18.27a8.68,8.68,0,0,0-.63,1.16c0,7.88-7.88,17.5-7.88,17.5l-7.69-11.11-.15-.22-1.83-2.66-.65-.86-.22-.3-4-5.37-1-1.34-.33-.45-.49-.65-1.15-1.53L288,671.4l-6,3.5-3.5,22.75v.63l.11,1.88.73,12.36v.17L278,717.81l.19.1a66.81,66.81,0,0,0,9.4,4.16l.85.3c1,.33,1.94.63,2.92.92a3,3,0,0,1,.08.45v-.43a68.46,68.46,0,0,0,37.55,0l.23-.07c.57-.16,1.15-.33,1.71-.52l.91-.29a68.73,68.73,0,0,0,7.24-2.9l.84-17.9.6-12.91V688Z"/><path class="cls-13" d="M329.92,707.52a6.91,6.91,0,0,0-.07-1.2c-.07-.4-.06-.75-.11-1.13s-.09-.76-.14-1.14-.12-.76-.19-1.14-.14-.76-.22-1.14a1.72,1.72,0,0,0-.08-.38c-.11-.5-.23-1-.36-1.51s-.21-.81-.33-1.21a1.7,1.7,0,0,0-.16-.53c-.06-.17-.17-.58-.26-.87l-.18-.56c-.08-.25-.16-.5-.25-.75-.15-.45-.31-.89-.47-1.34s-.33-.89-.5-1.33c-.34-.9-.71-1.79-1.08-2.68-1.45-3.46-3.08-6.87-4.58-10.25a57.16,57.16,0,0,1-2.14-5.43l-.19.27a12.67,12.67,0,0,0-.81,1.44c0,7.87-7.88,17.5-7.88,17.5L302,682.59l-6.94,10.67c-1,.53-2,2.35-2.78,4.94-.22.7-.43,1.46-.63,2.27-.14.54-.27,1.11-.39,1.68-.07.29-.13.58-.19.88l-.18.91v.14c-.12.62-.24,1.26-.35,1.91s-.24,1.4-.35,2.11q-.12.69-.21,1.38c-.14.89-.26,1.79-.38,2.68-.07.52-.14,1-.2,1.55l-.24,2c.51,1.64,1.08,3.26,1.67,4.85a7.9,7.9,0,0,1,.65,2.75,68.46,68.46,0,0,0,37.55,0v-.1a12,12,0,0,1-.24-2.73h0a75.49,75.49,0,0,1,1-7.65,27.86,27.86,0,0,0,.19-3.76v-.45C329.94,708.24,329.93,707.88,329.92,707.52Zm0,0a6.91,6.91,0,0,0-.07-1.2c-.07-.4-.06-.75-.11-1.13s-.09-.76-.14-1.14-.12-.76-.19-1.14-.14-.76-.22-1.14a1.72,1.72,0,0,0-.08-.38c-.11-.5-.23-1-.36-1.51s-.21-.81-.33-1.21a1.7,1.7,0,0,0-.16-.53c-.06-.17-.17-.58-.26-.87l-.18-.56c-.08-.25-.16-.5-.25-.75-.15-.45-.31-.89-.47-1.34s-.33-.89-.5-1.33c-.34-.9-.71-1.79-1.08-2.68-1.45-3.46-3.08-6.87-4.58-10.25a57.16,57.16,0,0,1-2.14-5.43l-.19.27a12.67,12.67,0,0,0-.81,1.44c0,7.87-7.88,17.5-7.88,17.5L302,682.59l-6.94,10.67c-1,.53-2,2.35-2.78,4.94-.22.7-.43,1.46-.63,2.27-.14.54-.27,1.11-.39,1.68-.07.29-.13.58-.19.88l-.18.91v.14c-.12.62-.24,1.26-.35,1.91s-.24,1.4-.35,2.11q-.12.69-.21,1.38c-.14.89-.26,1.79-.38,2.68-.07.52-.14,1-.2,1.55l-.24,2c.51,1.64,1.08,3.26,1.67,4.85a7.9,7.9,0,0,1,.65,2.75,68.46,68.46,0,0,0,37.55,0v-.1a12,12,0,0,1-.24-2.73h0a75.49,75.49,0,0,1,1-7.65,27.86,27.86,0,0,0,.19-3.76v-.45C329.94,708.24,329.93,707.88,329.92,707.52Zm0,0a6.91,6.91,0,0,0-.07-1.2c-.07-.4-.06-.75-.11-1.13s-.09-.76-.14-1.14-.12-.76-.19-1.14-.14-.76-.22-1.14a1.72,1.72,0,0,0-.08-.38c-.11-.5-.23-1-.36-1.51s-.21-.81-.33-1.21a1.7,1.7,0,0,0-.16-.53c-.06-.17-.17-.58-.26-.87l-.18-.56c-.08-.25-.16-.5-.25-.75-.15-.45-.31-.89-.47-1.34s-.33-.89-.5-1.33c-.34-.9-.71-1.79-1.08-2.68-1.45-3.46-3.08-6.87-4.58-10.25a57.16,57.16,0,0,1-2.14-5.43l-.19.27a12.67,12.67,0,0,0-.81,1.44c0,7.87-7.88,17.5-7.88,17.5L302,682.59l-6.94,10.67c-1,.53-2,2.35-2.78,4.94-.22.7-.43,1.46-.63,2.27-.14.54-.27,1.11-.39,1.68-.07.29-.13.58-.19.88l-.18.91v.14c-.12.62-.24,1.26-.35,1.91s-.24,1.4-.35,2.11q-.12.69-.21,1.38c-.14.89-.26,1.79-.38,2.68-.07.52-.14,1-.2,1.55l-.24,2c.51,1.64,1.08,3.26,1.67,4.85a7.9,7.9,0,0,1,.65,2.75,68.46,68.46,0,0,0,37.55,0v-.1a12,12,0,0,1-.24-2.73h0a75.49,75.49,0,0,1,1-7.65,27.86,27.86,0,0,0,.19-3.76v-.45C329.94,708.24,329.93,707.88,329.92,707.52Zm10.6-18.77L337,674.5l-.61-2.44-.17-.67h0l-.87-3.48v-.09h0a.77.77,0,0,0-.07-.45c-.13-.26-.46-.53-1.23-.6a6.46,6.46,0,0,0-.88,0h0a14,14,0,0,0-2.57.48c-.41.11-.85.23-1.32.38l-.86.27h-.08a19,19,0,0,0-6.3,3.5,16.58,16.58,0,0,0-3.2,3.54l-.19.27a12.67,12.67,0,0,0-.81,1.44c0,7.87-7.88,17.5-7.88,17.5L302,682.6l-.45-.65-.08-.11-1.15-1.69-.87-1.16-.23-.3-4.1-5.47h0l-1.3-1.77v-.06l-.45-.61-.86-1.14-3,1.75-7.5,4.37-3.46,22.51v.24l.1,1.64.74,12.53v.71l-1.13,4.51a65.68,65.68,0,0,0,9.4,4.16l.85.3c1,.33,1.94.63,2.92.92a3,3,0,0,1,.08.45v-.43a68.46,68.46,0,0,0,37.55,0l.23-.07c.57-.16,1.15-.33,1.71-.52l.91-.29a68.73,68.73,0,0,0,7.24-2.9h0l.83-17.88.6-12.77Zm-49.18,34.53a3,3,0,0,1,.08.45v-.43Zm38.58-15.76a6.91,6.91,0,0,0-.07-1.2c-.07-.4-.06-.75-.11-1.13s-.09-.76-.14-1.14-.12-.76-.19-1.14-.14-.76-.22-1.14a1.72,1.72,0,0,0-.08-.38c-.11-.5-.23-1-.36-1.51s-.21-.81-.33-1.21a1.7,1.7,0,0,0-.16-.53c-.06-.17-.17-.58-.26-.87l-.18-.56c-.08-.25-.16-.5-.25-.75-.15-.45-.31-.89-.47-1.34s-.33-.89-.5-1.33c-.34-.9-.71-1.79-1.08-2.68-1.45-3.46-3.08-6.87-4.58-10.25a57.16,57.16,0,0,1-2.14-5.43l-.19.27a12.67,12.67,0,0,0-.81,1.44c0,7.87-7.88,17.5-7.88,17.5L302,682.59l-6.94,10.67c-1,.53-2,2.35-2.78,4.94-.22.7-.43,1.46-.63,2.27-.14.54-.27,1.11-.39,1.68-.07.29-.13.58-.19.88l-.18.91v.14c-.12.62-.24,1.26-.35,1.91s-.24,1.4-.35,2.11q-.12.69-.21,1.38c-.14.89-.26,1.79-.38,2.68-.07.52-.14,1-.2,1.55l-.24,2c.51,1.64,1.08,3.26,1.67,4.85a7.9,7.9,0,0,1,.65,2.75,68.46,68.46,0,0,0,37.55,0v-.1a12,12,0,0,1-.24-2.73h0a75.49,75.49,0,0,1,1-7.65,27.86,27.86,0,0,0,.19-3.76v-.45C329.94,708.24,329.93,707.88,329.92,707.52Zm0,0a6.91,6.91,0,0,0-.07-1.2c-.07-.4-.06-.75-.11-1.13s-.09-.76-.14-1.14-.12-.76-.19-1.14-.14-.76-.22-1.14a1.72,1.72,0,0,0-.08-.38c-.11-.5-.23-1-.36-1.51s-.21-.81-.33-1.21a1.7,1.7,0,0,0-.16-.53c-.06-.17-.17-.58-.26-.87l-.18-.56c-.08-.25-.16-.5-.25-.75-.15-.45-.31-.89-.47-1.34s-.33-.89-.5-1.33c-.34-.9-.71-1.79-1.08-2.68-1.45-3.46-3.08-6.87-4.58-10.25a57.16,57.16,0,0,1-2.14-5.43l-.19.27a12.67,12.67,0,0,0-.81,1.44c0,7.87-7.88,17.5-7.88,17.5L302,682.59l-6.94,10.67c-1,.53-2,2.35-2.78,4.94-.22.7-.43,1.46-.63,2.27-.14.54-.27,1.11-.39,1.68-.07.29-.13.58-.19.88l-.18.91v.14c-.12.62-.24,1.26-.35,1.91s-.24,1.4-.35,2.11q-.12.69-.21,1.38c-.14.89-.26,1.79-.38,2.68-.07.52-.14,1-.2,1.55l-.24,2c.51,1.64,1.08,3.26,1.67,4.85a7.9,7.9,0,0,1,.65,2.75,68.46,68.46,0,0,0,37.55,0v-.1a12,12,0,0,1-.24-2.73h0a75.49,75.49,0,0,1,1-7.65,27.86,27.86,0,0,0,.19-3.76v-.45C329.94,708.24,329.93,707.88,329.92,707.52Zm0,0a6.91,6.91,0,0,0-.07-1.2c-.07-.4-.06-.75-.11-1.13s-.09-.76-.14-1.14-.12-.76-.19-1.14-.14-.76-.22-1.14a1.72,1.72,0,0,0-.08-.38c-.11-.5-.23-1-.36-1.51s-.21-.81-.33-1.21a1.7,1.7,0,0,0-.16-.53c-.06-.17-.17-.58-.26-.87l-.18-.56c-.08-.25-.16-.5-.25-.75-.15-.45-.31-.89-.47-1.34s-.33-.89-.5-1.33c-.34-.9-.71-1.79-1.08-2.68-1.45-3.46-3.08-6.87-4.58-10.25a57.16,57.16,0,0,1-2.14-5.43l-.19.27a12.67,12.67,0,0,0-.81,1.44c0,7.87-7.88,17.5-7.88,17.5L302,682.59l-6.94,10.67c-1,.53-2,2.35-2.78,4.94-.22.7-.43,1.46-.63,2.27-.14.54-.27,1.11-.39,1.68-.07.29-.13.58-.19.88l-.18.91v.14c-.12.62-.24,1.26-.35,1.91s-.24,1.4-.35,2.11q-.12.69-.21,1.38c-.14.89-.26,1.79-.38,2.68-.07.52-.14,1-.2,1.55l-.24,2c.51,1.64,1.08,3.26,1.67,4.85a7.9,7.9,0,0,1,.65,2.75,68.46,68.46,0,0,0,37.55,0v-.1a12,12,0,0,1-.24-2.73h0a75.49,75.49,0,0,1,1-7.65,27.86,27.86,0,0,0,.19-3.76v-.45C329.94,708.24,329.93,707.88,329.92,707.52Zm0,0a6.91,6.91,0,0,0-.07-1.2c-.07-.4-.06-.75-.11-1.13s-.09-.76-.14-1.14-.12-.76-.19-1.14-.14-.76-.22-1.14a1.72,1.72,0,0,0-.08-.38c-.11-.5-.23-1-.36-1.51s-.21-.81-.33-1.21a1.7,1.7,0,0,0-.16-.53c-.06-.17-.17-.58-.26-.87l-.18-.56c-.08-.25-.16-.5-.25-.75-.15-.45-.31-.89-.47-1.34s-.33-.89-.5-1.33c-.34-.9-.71-1.79-1.08-2.68-1.45-3.46-3.08-6.87-4.58-10.25a57.16,57.16,0,0,1-2.14-5.43l-.19.27a12.67,12.67,0,0,0-.81,1.44c0,7.87-7.88,17.5-7.88,17.5L302,682.59l-6.94,10.67c-1,.53-2,2.35-2.78,4.94-.22.7-.43,1.46-.63,2.27-.14.54-.27,1.11-.39,1.68-.07.29-.13.58-.19.88l-.18.91v.14c-.12.62-.24,1.26-.35,1.91s-.24,1.4-.35,2.11q-.12.69-.21,1.38c-.14.89-.26,1.79-.38,2.68-.07.52-.14,1-.2,1.55l-.24,2c.51,1.64,1.08,3.26,1.67,4.85a7.9,7.9,0,0,1,.65,2.75,68.46,68.46,0,0,0,37.55,0v-.1a12,12,0,0,1-.24-2.73h0a75.49,75.49,0,0,1,1-7.65,27.86,27.86,0,0,0,.19-3.76v-.45C329.94,708.24,329.93,707.88,329.92,707.52Zm0,0a6.91,6.91,0,0,0-.07-1.2c-.07-.4-.06-.75-.11-1.13s-.09-.76-.14-1.14-.12-.76-.19-1.14-.14-.76-.22-1.14a1.72,1.72,0,0,0-.08-.38c-.11-.5-.23-1-.36-1.51s-.21-.81-.33-1.21a1.7,1.7,0,0,0-.16-.53c-.06-.17-.17-.58-.26-.87l-.18-.56c-.08-.25-.16-.5-.25-.75-.15-.45-.31-.89-.47-1.34s-.33-.89-.5-1.33c-.34-.9-.71-1.79-1.08-2.68-1.45-3.46-3.08-6.87-4.58-10.25a57.16,57.16,0,0,1-2.14-5.43l-.19.27a12.67,12.67,0,0,0-.81,1.44c0,7.87-7.88,17.5-7.88,17.5L302,682.59l-6.94,10.67c-1,.53-2,2.35-2.78,4.94-.22.7-.43,1.46-.63,2.27-.14.54-.27,1.11-.39,1.68-.07.29-.13.58-.19.88l-.18.91v.14c-.12.62-.24,1.26-.35,1.91s-.24,1.4-.35,2.11q-.12.69-.21,1.38c-.14.89-.26,1.79-.38,2.68-.07.52-.14,1-.2,1.55l-.24,2c.51,1.64,1.08,3.26,1.67,4.85a7.9,7.9,0,0,1,.65,2.75,68.46,68.46,0,0,0,37.55,0v-.1a12,12,0,0,1-.24-2.73h0a75.49,75.49,0,0,1,1-7.65,27.86,27.86,0,0,0,.19-3.76v-.45C329.94,708.24,329.93,707.88,329.92,707.52Zm0,0a6.91,6.91,0,0,0-.07-1.2c-.07-.4-.06-.75-.11-1.13s-.09-.76-.14-1.14-.12-.76-.19-1.14-.14-.76-.22-1.14a1.72,1.72,0,0,0-.08-.38c-.11-.5-.23-1-.36-1.51s-.21-.81-.33-1.21a1.7,1.7,0,0,0-.16-.53c-.06-.17-.17-.58-.26-.87l-.18-.56c-.08-.25-.16-.5-.25-.75-.15-.45-.31-.89-.47-1.34s-.33-.89-.5-1.33c-.34-.9-.71-1.79-1.08-2.68-1.45-3.46-3.08-6.87-4.58-10.25a57.16,57.16,0,0,1-2.14-5.43l-.19.27a12.67,12.67,0,0,0-.81,1.44c0,7.87-7.88,17.5-7.88,17.5L302,682.59l-6.94,10.67c-1,.53-2,2.35-2.78,4.94-.22.7-.43,1.46-.63,2.27-.14.54-.27,1.11-.39,1.68-.07.29-.13.58-.19.88l-.18.91v.14c-.12.62-.24,1.26-.35,1.91s-.24,1.4-.35,2.11q-.12.69-.21,1.38c-.14.89-.26,1.79-.38,2.68-.07.52-.14,1-.2,1.55l-.24,2c.51,1.64,1.08,3.26,1.67,4.85a7.9,7.9,0,0,1,.65,2.75,68.46,68.46,0,0,0,37.55,0v-.1a12,12,0,0,1-.24-2.73h0a75.49,75.49,0,0,1,1-7.65,27.86,27.86,0,0,0,.19-3.76v-.45C329.94,708.24,329.93,707.88,329.92,707.52Zm0,0a6.91,6.91,0,0,0-.07-1.2c-.07-.4-.06-.75-.11-1.13s-.09-.76-.14-1.14-.12-.76-.19-1.14-.14-.76-.22-1.14a1.72,1.72,0,0,0-.08-.38c-.11-.5-.23-1-.36-1.51s-.21-.81-.33-1.21a1.7,1.7,0,0,0-.16-.53c-.06-.17-.17-.58-.26-.87l-.18-.56c-.08-.25-.16-.5-.25-.75-.15-.45-.31-.89-.47-1.34s-.33-.89-.5-1.33c-.34-.9-.71-1.79-1.08-2.68-1.45-3.46-3.08-6.87-4.58-10.25a57.16,57.16,0,0,1-2.14-5.43l-.19.27a12.67,12.67,0,0,0-.81,1.44c0,7.87-7.88,17.5-7.88,17.5L302,682.59l-6.94,10.67c-1,.53-2,2.35-2.78,4.94-.22.7-.43,1.46-.63,2.27-.14.54-.27,1.11-.39,1.68-.07.29-.13.58-.19.88l-.18.91v.14c-.12.62-.24,1.26-.35,1.91s-.24,1.4-.35,2.11q-.12.69-.21,1.38c-.14.89-.26,1.79-.38,2.68-.07.52-.14,1-.2,1.55l-.24,2c.51,1.64,1.08,3.26,1.67,4.85a7.9,7.9,0,0,1,.65,2.75,68.46,68.46,0,0,0,37.55,0v-.1a12,12,0,0,1-.24-2.73h0a75.49,75.49,0,0,1,1-7.65,27.86,27.86,0,0,0,.19-3.76v-.45C329.94,708.24,329.93,707.88,329.92,707.52Zm0,0a6.91,6.91,0,0,0-.07-1.2c-.07-.4-.06-.75-.11-1.13s-.09-.76-.14-1.14-.12-.76-.19-1.14-.14-.76-.22-1.14a1.72,1.72,0,0,0-.08-.38c-.11-.5-.23-1-.36-1.51s-.21-.81-.33-1.21a1.7,1.7,0,0,0-.16-.53c-.06-.17-.17-.58-.26-.87l-.18-.56c-.08-.25-.16-.5-.25-.75-.15-.45-.31-.89-.47-1.34s-.33-.89-.5-1.33c-.34-.9-.71-1.79-1.08-2.68-1.45-3.46-3.08-6.87-4.58-10.25a57.16,57.16,0,0,1-2.14-5.43l-.19.27a12.67,12.67,0,0,0-.81,1.44c0,7.87-7.88,17.5-7.88,17.5L302,682.59l-6.94,10.67c-1,.53-2,2.35-2.78,4.94-.22.7-.43,1.46-.63,2.27-.14.54-.27,1.11-.39,1.68-.07.29-.13.58-.19.88l-.18.91v.14c-.12.62-.24,1.26-.35,1.91s-.24,1.4-.35,2.11q-.12.69-.21,1.38c-.14.89-.26,1.79-.38,2.68-.07.52-.14,1-.2,1.55l-.24,2c.51,1.64,1.08,3.26,1.67,4.85a7.9,7.9,0,0,1,.65,2.75,68.46,68.46,0,0,0,37.55,0v-.1a12,12,0,0,1-.24-2.73h0a75.49,75.49,0,0,1,1-7.65,27.86,27.86,0,0,0,.19-3.76v-.45C329.94,708.24,329.93,707.88,329.92,707.52Z"/><path class="cls-12" d="M302.13,681.92l-.67-.09a25.68,25.68,0,0,1-3-.6l-.37-.1c-2.44-.69-5.11-1.93-5.71-4.11a3.85,3.85,0,0,1,.06-2.13,18.24,18.24,0,0,1,1.36-3.44v-.06a4.79,4.79,0,0,1,.25-.45,9.91,9.91,0,0,1,3.61-3.93l-1.2.19h0l-10.16,1.65-15.75,2.54s-2.8-.56-6.61,9.94a1.62,1.62,0,0,1-.13.39c-.92,2.57-1.89,5.78-2.89,9.79-.69,2.78-1.32,5.51-1.9,8.16-.17.8-.34,1.59-.5,2.37a63.28,63.28,0,0,0,5.81,6l.33.31A68.62,68.62,0,0,0,278,717.78l.19.1a66.81,66.81,0,0,0,9.4,4.16l.85.3c.18-1.85.38-3.9.62-6a1.71,1.71,0,0,1,.08-.63l.24-2c.06-.51.13-1,.2-1.55.12-.89.24-1.79.38-2.68q.09-.69.21-1.38c.11-.71.23-1.42.35-2.11s.23-1.29.35-1.91v-.14L291,703c.06-.3.12-.59.19-.88.12-.57.25-1.14.39-1.68.2-.81.41-1.57.63-2.27.8-2.59,1.73-4.41,2.78-4.94L302,682.59l.29-.45.13-.2Z"/><path class="cls-15" d="M301.54,681.94l-7.37,11.32c-1,.51-1.94,2.28-2.73,4.79-.23.74-.46,1.55-.68,2.4a117.76,117.76,0,0,0-2.26,13.09,1.55,1.55,0,0,1-.08.6c-.34,2.78-.62,5.51-.85,7.92a66.81,66.81,0,0,1-9.4-4.16l-.19-.1a68.62,68.62,0,0,1-13.32-9.43l-.33-.31a63.28,63.28,0,0,1-5.81-6c-.24-.27-.47-.55-.7-.83.11-.52.22-1,.34-1.56.57-2.65,1.2-5.37,1.89-8.14a99,99,0,0,1,3.4-11.2,3.05,3.05,0,0,1,.13-.32c3.54-9.11,6.09-8.6,6.09-8.6l16.63-2.68,10.5-1.7-.33.19h0a10.61,10.61,0,0,0-2.89,3.08l-.29.49c-.12.19-.23.4-.35.61a17.34,17.34,0,0,0-1.38,3.5,3.7,3.7,0,0,0,.24,2.86c1,1.94,3.84,3,6.17,3.58l.39.1A26.29,26.29,0,0,0,301.54,681.94Z"/><path class="cls-12" d="M359.33,702.15l-.41-8.88c1.75-14-1.75-14.87-1.75-14.87l-4.16-2h-.11l-16.73-8.11-.65-.32-.2-.09h0l-2.18-1.06h0l-1.38-.67-2.58-1.25-.87-.42V668c0,1,.09,2.17.17,3.53.18,3.42.51,8,1.1,13.4.33,3.13.75,6.55,1.27,10.22.31,2.17.53,4.33.67,6.44a113.19,113.19,0,0,1-.66,21.3l.91-.29a68.73,68.73,0,0,0,7.24-2.9h0a66.38,66.38,0,0,0,12.9-7.92l.18-.13a67.66,67.66,0,0,0,7.26-6.59Z"/><path class="cls-15" d="M360.21,702.15l-.41-8.9c1.75-14-1.75-14.87-1.75-14.87l-5-2.42H353l-16.78-8.14-.77-.37-.15-.07-1.23-.6-1.63-.79-3.22-1.56v1.42h0v1.76c0,1,.09,2.31.18,3.8.17,3.19.47,7.37,1,12.34.36,3.41.81,7.2,1.4,11.28.31,2.18.53,4.33.66,6.47a113.39,113.39,0,0,1-.62,21,68.73,68.73,0,0,0,7.24-2.9h0a66.38,66.38,0,0,0,12.9-7.92l.18-.13a67.66,67.66,0,0,0,7.26-6.59q.44-.45.84-.9Z"/><path class="cls-12" d="M303.8,628.68c3.12-.53,6.26-1.67,9.36-1,2.6.54,4.77,2.27,7.15,3.47a18.61,18.61,0,0,0,7.38,2,4.4,4.4,0,0,0,2.71-.53c1.24-.86,1.42-2.62,1.21-4.12-.6-4.26-3.26-7.92-6-11.24a21.87,21.87,0,0,0-3.76-3.81c-3.59-2.65-8.34-3.1-12.79-2.9-5.08.23-10.24,1.21-14.65,3.76-3,1.72-9.88,7.14-7.49,11.06C289.43,629.42,299.87,629.35,303.8,628.68Z"/><path class="cls-13" d="M303.8,627.68c3.12-.53,6.26-1.67,9.36-1,2.6.54,4.77,2.27,7.15,3.47a18.61,18.61,0,0,0,7.38,2,4.4,4.4,0,0,0,2.71-.53c1.24-.86,1.42-2.62,1.21-4.12-.6-4.26-3.26-7.92-6-11.24a21.87,21.87,0,0,0-3.76-3.81c-3.59-2.65-8.34-3.1-12.79-2.9-5.08.23-10.24,1.21-14.65,3.76-3,1.72-9.88,7.14-7.49,11.06C289.43,628.42,299.87,628.35,303.8,627.68Z"/></g><path class="cls-16" d="M578.41,578.71h.15c.22,6.7,1.17,12.76,3,14.44,4.36,4,22.44-4,21.2-8.84-.25-1-.67-2.64-1.2-4.71,4.88-.61,9.05-2,10.71-4.86l3.14,9.68.22.69h.24c2.07,19.62,6.76,60.36,10.51,65.82,5,7.23,10.75,38.56,10.75,38.56l10.75,64.27s4.14,37,6.62,41a4.67,4.67,0,0,0,2.72,1.41c-1.45,4.34-3.53,9.41-6,12.24-5,5.62-11.58,16.87-17.37,16.07s-7.44,11.25,3.31,12.85c6,.89,15.44-.19,22.73-1.33,0,3.22,2.24,6.92,7.87,7.76,10.75,1.61,33.08-3.21,33.08-3.21s19-8,19.85-13.66c.6-4.1-2.31-20.56-3.93-29.19,3-4.81-.2-46.32-.2-46.32l-5.79-79.53s3.31-44.18,0-52.22c-2.07-5-2.84-28-3.13-44.45l4,.26a8.62,8.62,0,0,0,.62-.87l1,.07s5-5.62.83-14.46c-3.07-6.57-2.49-36.23-2-51h0l.59-7a2.07,2.07,0,0,0,.49-.76,73.35,73.35,0,0,0,22.33-6.76,23.09,23.09,0,0,0,5.86-3.56c4.14-4,1.65-28.12-6.62-64.27S719,393.89,719,393.89s-19.85-1.61-28.95-13.66-15.21-11.89-15.21-11.89h0c-.23-1.58-.39-3.07-.5-4.46,0-.52-.08-1-.11-1.52a26.58,26.58,0,0,0,6.88-10.43c1.86-1,4.15-1.33,5.93-2.59a7.39,7.39,0,0,0,1.23-1.14,10.12,10.12,0,0,0,3.19-6.29,25.78,25.78,0,0,0-.37-7.89c-.63-3.84-1.56-7.77-3.8-10.79s-5.59-4.84-8.82-6.53q-13.12-6.9-26.31-13.64a14.41,14.41,0,0,0-5.63-2c-3.52-.2-6.68,2.21-9.52,4.5a39.91,39.91,0,0,0-3.25,2.85A17.13,17.13,0,0,0,631.4,311c-3.32,4.45-4.73,12.83-3.27,18.39.46,1.76,1.45,2.27,2.67,2.25a25.78,25.78,0,0,0-2.75,11.6,26.31,26.31,0,0,0,12.21,22.09c0,.56,0,1.11,0,1.64a60.17,60.17,0,0,1-.2,6.15s-22,11.89-24.47,17.51-11.58,9.64-11.58,9.64-17.37,8.84-17.37,40.17l-9.1,44.18L575.94,569s1.14-1,3-2.42c-.06.56-.11,1.14-.16,1.73a94.85,94.85,0,0,0-.25,9.69ZM689.51,797c-.34,1.29-.84,3-1.47,5-.28-1.66-.56-3.3-.84-4.86.72-.07,1.49-.11,2.31-.14Z"/><path class="cls-17" d="M659.47,786.66s-3.19,14.34-8,19.91S640.36,823.3,634.8,822.5s-7.17,11.15,3.19,12.74,31.81-3.18,31.81-3.18,18.32-8,19.11-13.54-4.78-34.25-4.78-34.25Z"/><path class="cls-18" d="M659.47,786.66s-3.19,14.34-8,19.91S640.36,823.3,634.8,822.5s-7.17,11.15,3.19,12.74,31.81-3.18,31.81-3.18,18.32-8,19.11-13.54-4.78-34.25-4.78-34.25Z"/><path class="cls-17" d="M688.94,793s-3.19,14.34-8,19.91-11.14,16.73-16.69,15.93-7.17,11.15,3.19,12.74,31.86-3.19,31.86-3.19,18.32-8,19.11-13.54-4.78-34.25-4.78-34.25Z"/><path class="cls-19" d="M616.46,574.82s6.37,68.49,11.15,75.66S638,688.71,638,688.71l10.35,63.71s4,36.64,6.37,40.62,31.93,2.27,31.93,2.27L668.23,584.37Z"/><path class="cls-18" d="M616.46,574.82s6.37,68.49,11.15,75.66S638,688.71,638,688.71l10.35,63.71s4,36.64,6.37,40.62,31.93,2.27,31.93,2.27L668.23,584.37Z"/><path class="cls-19" d="M603.72,542.15l2.08,6.61,11.25,35.71.22.68h.06c1.51.34,33.39,7.67,40.27,9.92a8.41,8.41,0,0,1,1.09.41c3.19,1.59,7.17,58.93,7.17,58.93s2.39,54.16,4,58.14,8,86,11.95,83.62,32.65,0,32.65,0c3.19-3.19,0-46.19,0-46.19l-5.66-78.83s3.19-43.8,0-51.77-3.19-61.32-3.19-61.32l-65.19-10.19-6.3-1Z"/><path class="cls-20" d="M605.8,548.77l11.25,35.71.27.7c1.51.34,33.39,7.67,40.27,9.92h.69l-17.81-47.22-.51-1.36-5.79.37Z"/><path class="cls-12" d="M680.18,382.88s-29.47,31.86-47.79,5.57L614.87,400.4l3.19,18.32L607.7,557.29s27.08-.8,46.19,5.57A29.66,29.66,0,0,0,685,555.69L681.8,433.85,689,396.42Z"/><path class="cls-17" d="M680.18,380.49s-29.47,31.86-47.79,5.57L614.87,398l3.19,18.32L607.7,554.9s27.08-.8,46.19,5.57A29.66,29.66,0,0,0,685,553.3L681.8,431.46,689,394Z"/><g id="b7475575-9269-4b4a-a721-bb0a166a2f3e"><g id="_5bdc843c-f8f1-42c9-9268-9744bdec504e" data-name="5bdc843c-f8f1-42c9-9268-9744bdec504e"><polyline id="_6bc746a9-2d5c-4457-b327-3c896c91b9d0" data-name="6bc746a9-2d5c-4457-b327-3c896c91b9d0" class="cls-21" points="621.35 522.37 621.35 527.39 619.75 527.39 619.75 524.05 613.9 524.05 613.9 527.39 612.29 527.39 612.29 522.38 621.35 522.37"/><path id="d39c551f-7962-48ac-bd52-1b7ff04213b0" class="cls-21" d="M619.92,520.75h-6.18a2.28,2.28,0,0,1-1.68-1.66h9.53a2.3,2.3,0,0,1-1.68,1.66"/></g><g id="_338417f9-9740-4f15-9fb5-4758cf3f6efe" data-name="338417f9-9740-4f15-9fb5-4758cf3f6efe"><path id="a3b10f10-7568-4e16-9739-cab30d2da761" class="cls-21" d="M675.8,519.15a2.31,2.31,0,0,1-1.67,1.65h-2.6l-.13.05v6.56h-1.6v-6.56l-.15-.05h-2.6a2.34,2.34,0,0,1-1.67-1.65H675.8"/></g></g><path class="cls-22" d="M618.85,545.35s0,20.71-4.78,29.47-32.65,4-32.65,4L587,549.35Z"/><path class="cls-23" d="M584.45,593.15c4.2,4,21.61-4,20.41-8.76-.84-3.37-3.78-15.43-5.45-22.27l-1.16-4.81s-10.2-3.19-13.8,0c-1.31,1.16-2.23,5.73-2.66,11.25C581.05,578.15,581.8,590.61,584.45,593.15Z"/><path class="cls-23" d="M622.8,394.82l27.87,21.5s41.41-2.39,31.06-22.3a74.17,74.17,0,0,1-8-28.14,58.26,58.26,0,0,1,0-10.89s-38.23-35-33.45,4.78a88.31,88.31,0,0,1,.66,9.2C641.51,398.83,622.8,394.82,622.8,394.82Z"/><path class="cls-12" d="M640.36,359.78A88.31,88.31,0,0,1,641,369a26.11,26.11,0,0,0,14.47,4.34c7.13,0,12.38-6.94,17.12-11.55-.53-6.61,1.19-6.77,1.19-6.77S635.58,320,640.36,359.78Z"/><circle class="cls-23" cx="655.49" cy="345.45" r="26.28"/><path class="cls-12" d="M674.2,370.53s4.38.4,13.14,12.34,27.87,13.54,27.87,13.54,7.17-3.19,15.13,32.65,10.35,59.73,6.37,63.71-19.91,9.57-27.91,9.57c0,0-2.39,50.17,1.59,58.93s-.8,14.34-.8,14.34l-35-2.39s-12-15.13-14.34-41.41S649.9,430.66,653.88,421.9s21.5-31.06,20.71-33.45S674.2,370.53,674.2,370.53Z"/><path class="cls-22" d="M674.29,370.29s5.89-.16,14.65,11.79,27.86,13.54,27.86,13.54,7.17-3.19,15.13,32.65S742.28,488,738.3,492s-19.91,9.56-27.87,9.56c0,0-2.39,50.17,1.59,58.93s-.8,14.34-.8,14.34l-35-2.39s-12-15.13-14.34-41.41-10.37-101.14-6.39-109.86S677,390.09,676.2,387.7,674.29,370.29,674.29,370.29Z"/><path class="cls-12" d="M581.8,568.55c3.81-2.91,11-7.44,17.62-6.44l-1.16-4.81s-10.2-3.19-13.8,0C583.13,558.46,582.22,563,581.8,568.55Z"/><path class="cls-12" d="M640.8,375.31S620.49,388.45,618.1,394,607,403.59,607,403.59s-16.72,8.76-16.72,39.82l-8.76,43.8L621.29,543s4.78-55.75,7.17-69.29,5.57-39,5.57-39,12-15.13,10.35-19.11S640.8,375.31,640.8,375.31Z"/><path class="cls-22" d="M640.8,375.07s-21.18,11.79-23.56,17.36S606.09,402,606.09,402s-16.72,8.76-16.72,39.82l-8.76,43.8L579,569.23s14.34-13.54,24.69-7.17,16.72-20.71,16.72-20.71,4.78-55.75,7.17-69.29,5.57-39,5.57-39,12-15.13,10.35-19.11S640.8,375.07,640.8,375.07Z"/><path class="cls-12" d="M632.42,313.48a25.79,25.79,0,0,1,4.64-4.58c2.74-2.28,5.77-4.66,9.17-4.46a13.54,13.54,0,0,1,5.42,1.94q12.71,6.69,25.33,13.52c3.11,1.68,6.32,3.46,8.49,6.48s3,6.9,3.66,10.7a26.3,26.3,0,0,1,.36,7.82,9.85,9.85,0,0,1-3.46,6.57c-2.27,1.65-5.38,1.66-7.28,3.82-1.1,1.25-1.58,3-2.36,4.52s-2.13,3-3.67,2.73-2.47-1.9-2.69-3.55a21.45,21.45,0,0,1,.29-5c.3-3-.08-6.18-1.82-8.41-1.2-1.52-2.92-2.44-4.08-4-2.78-3.76-1.51-10-4.56-13.53a7.21,7.21,0,0,0-7-2c-2.47.52-4.73,1.86-7,3a53.1,53.1,0,0,1-9.59,3.7c-2.78.76-6,2.58-6.95-1.12C627.87,326.2,629.22,317.89,632.42,313.48Z"/><path class="cls-24" d="M633.22,312.69a25.79,25.79,0,0,1,4.64-4.58c2.74-2.28,5.77-4.66,9.17-4.46a13.54,13.54,0,0,1,5.42,1.94c8.46,4.46,15.49.24,25.33,13.52,2.1,2.84,6.32,3.46,8.49,6.48s3.05,6.9,3.66,10.7a26.3,26.3,0,0,1,.36,7.82,9.85,9.85,0,0,1-3.46,6.57c-2.27,1.65-5.38,1.66-7.28,3.82-1.1,1.25-1.58,3-2.36,4.52s-2.13,3-3.67,2.73-2.47-1.9-2.69-3.55a21.45,21.45,0,0,1,.29-5c.3-3-.08-6.18-1.82-8.41-1.2-1.52-2.92-2.44-4.08-4-2.78-3.76-1.51-10-4.56-13.53a7.21,7.21,0,0,0-7-2c-2.47.52-4.73,1.86-7,3a53.1,53.1,0,0,1-9.59,3.7c-2.78.76-6,2.58-7-1.12C628.66,325.41,630,317.09,633.22,312.69Z"/><path class="cls-12" d="M705,434.24s10.62,27.08,2.65,38.23l-17.52-4s15.93,4.78,13.54-4.78S705,434.24,705,434.24Z"/><path class="cls-12" d="M710.8,501.15s-23.1,1.59-29.47-3.19a61,61,0,0,0,28.75,12Z"/><path class="cls-12" d="M611.29,450.15s-11.95,36.64-11.15,42.21,2.39,66.9,2.39,66.9l2.39-.8-.8-66.9Z"/><path class="cls-25" d="M713.61,494.93l-273-220a17.05,17.05,0,0,0-12.1-5h-11.6a148,148,0,1,0-25.63,25.63v11.59a17.07,17.07,0,0,0,5,12.1l273,220a17,17,0,0,0,24,.09l.1-.09,20.12-20.1A17.18,17.18,0,0,0,713.61,494.93Zm-413.47-225a91.14,91.14,0,1,1,91.14-91.14h0a91.09,91.09,0,0,1-91,91.16h-.12Z"/><path class="cls-5" d="M715.61,492.93l-273-220a17.05,17.05,0,0,0-12.1-5h-11.6a148,148,0,1,0-25.63,25.63v11.59a17.07,17.07,0,0,0,5,12.1l273,220a17,17,0,0,0,24,.09l.1-.09,20.12-20.1A17.18,17.18,0,0,0,715.61,492.93Zm-413.47-225a91.14,91.14,0,1,1,91.14-91.14h0a91.09,91.09,0,0,1-91,91.16h-.12Z"/><path class="cls-23" d="M695.31,472.87s-39.85-45.7-34.25-14.34c4,22.3,19.11,34.25,26.28,36.64S695.31,472.87,695.31,472.87Z"/><path class="cls-22" d="M704.87,430.66s.8,29.47,4.78,33.45-2.39,8.76-2.39,8.76l-15.93-4s4,26.28-12.74,23.1c0,0,11.15,10.35,22.3,11.95s10.35-2.39,10.35-2.39L728,481.62Z"/><polygon class="cls-22" points="709.28 501.96 725.44 498.41 723.28 490.96 713.28 486.96 700.28 492.96 709.28 501.96"/><path class="cls-4" d="M237.58,176a67.72,67.72,0,0,0,13.58,40.78c.89,1.19,1.82,2.34,2.79,3.47.52.61,1.06,1.21,1.61,1.8q.41.45.84.9a67.66,67.66,0,0,0,7.26,6.59l.18.13a66.38,66.38,0,0,0,12.9,7.92h0a68.73,68.73,0,0,0,7.24,2.9l.91.29c.56.19,1.14.36,1.71.52l.23.07c.29.08.58.17.88.24a68,68,0,0,0,17.83,2.37c1,0,2,0,3.07-.07a67.48,67.48,0,0,0,15.77-2.58h.1c.95-.28,1.89-.57,2.82-.89h.1l.85-.3a65.68,65.68,0,0,0,9.4-4.16l.19-.1,1-.55a68.26,68.26,0,0,0,12.34-8.88l.33-.31a63.28,63.28,0,0,0,5.81-6l.21-.25c.17-.19.33-.38.49-.58.44-.52.86-1.06,1.28-1.6A68,68,0,1,0,237.58,176Z"/><path class="cls-26" d="M261.11,197.82s14.75-1.25,21.51-10.63c6.59-9.13,11.07-9.24,11.29-9.24h0c.17-1.22.29-2.38.37-3.46v-.15a2.11,2.11,0,0,1-.93.41c-1.32.2-2.48-1.05-3.14-2.38a18.48,18.48,0,0,0-2-3.94c-1.63-1.88-4.3-1.89-6.24-3.32a8.61,8.61,0,0,1-3-5.72,15,15,0,0,1-.12-2.5,27.92,27.92,0,0,1,.42-5.33c.52-3.31,1.29-6.7,3.14-9.31s5.47-3.17,7.27-5.64c8.43-11.56,14.44-7.89,21.69-11.77a11.56,11.56,0,0,1,4.64-1.69c2.91-.17,5.51,1.91,7.85,3.89a22,22,0,0,1,4,4c2.09,2.93,3.26,7.84,3.16,12.14a18.11,18.11,0,0,1-.46,4.75c-.58,2.3-2.15,2.15-3.87,1.63a20.78,20.78,0,0,1-7.06,26.08v1.28a47.71,47.71,0,0,0,.16,4.78c.17.09,16.34,9.26,18.17,13.61s8.61,7.5,8.61,7.5,7.45,4,11,16.56l-.21.25a64.58,64.58,0,0,1-5.81,6.12l-.33.32a68.18,68.18,0,0,1-12.34,9c-.32.19-.65.38-1,.56l-.19.1a66,66,0,0,1-9.4,4.23l-.85.31h-.1c-.93.33-1.87.62-2.82.9h-.1a66.93,66.93,0,0,1-15.77,2.62c-1,.05-2,.07-3.07.07a67.17,67.17,0,0,1-17.78-2.31c-.3-.07-.59-.16-.88-.24l-.23-.07c-.57-.16-1.15-.34-1.71-.53l-.91-.29a67.49,67.49,0,0,1-7.27-3h0a66.5,66.5,0,0,1-12.9-8l-.18-.13a68.77,68.77,0,0,1-7.26-6.7c-.29-.3-.57-.6-.84-.92-.55-.6-1.09-1.21-1.61-1.83-1-1.15-1.9-2.32-2.79-3.53C256.57,195.76,261.11,197.82,261.11,197.82Z"/><path class="cls-23" d="M312.11,214.56,333.62,198s-14.41,3.09-14-19.94v-.23a58.92,58.92,0,0,1,.5-6.87c3.69-30.73-25.81-3.69-25.81-3.69a44.7,44.7,0,0,1,0,8.18v.22a57.1,57.1,0,0,1-6.14,21.71C280.16,212.71,312.11,214.56,312.11,214.56Z"/><path class="cls-12" d="M297.06,171.15c3.65,3.55,5.88,10,11.37,10a20.25,20.25,0,0,0,11.17-3.35,58.92,58.92,0,0,1,.5-6.87c3.69-30.73-25.81-3.69-25.81-3.69S297.45,166.15,297.06,171.15Z"/><circle class="cls-23" cx="308.43" cy="159.87" r="20.28"/><path class="cls-12" d="M327.88,133.9a22.16,22.16,0,0,0-4-3.92c-2.34-1.95-4.94-4-7.85-3.82a11.51,11.51,0,0,0-4.64,1.66c-7.25,3.82-13.26.21-21.69,11.57-1.8,2.43-5.41,3-7.27,5.55s-2.61,5.9-3.14,9.16a22.47,22.47,0,0,0-.31,6.7,8.4,8.4,0,0,0,3,5.62c1.94,1.41,4.61,1.42,6.24,3.27a18,18,0,0,1,2,3.87c.66,1.3,1.82,2.53,3.14,2.34s2.11-1.62,2.3-3a18.48,18.48,0,0,0-.25-4.27c-.25-2.53.07-5.29,1.56-7.2,1-1.31,2.5-2.09,3.49-3.42,2.38-3.21,1.3-8.6,3.91-11.58a6.17,6.17,0,0,1,6-1.67,25.29,25.29,0,0,1,6,2.58,45.68,45.68,0,0,0,8.21,3.17c2.38.65,5.14,2.21,5.95-1C331.8,144.79,330.61,137.67,327.88,133.9Z"/><path class="cls-24" d="M327.88,132.9a22.16,22.16,0,0,0-4-3.92c-2.34-1.95-4.94-4-7.85-3.82a11.51,11.51,0,0,0-4.64,1.66c-7.25,3.82-13.26.21-21.69,11.57-1.8,2.43-5.41,3-7.27,5.55s-2.61,5.9-3.14,9.16a22.47,22.47,0,0,0-.31,6.7,8.4,8.4,0,0,0,3,5.62c1.94,1.41,4.61,1.42,6.24,3.27a18,18,0,0,1,2,3.87c.66,1.3,1.82,2.53,3.14,2.34s2.11-1.62,2.3-3a18.48,18.48,0,0,0-.25-4.27c-.25-2.53.07-5.29,1.56-7.2,1-1.31,2.5-2.09,3.49-3.42,2.38-3.21,1.3-8.6,3.91-11.58a6.17,6.17,0,0,1,6-1.67,25.29,25.29,0,0,1,6,2.58,45.68,45.68,0,0,0,8.21,3.17c2.38.65,5.14,2.21,5.95-1C331.8,143.79,330.61,136.67,327.88,132.9Z"/><path class="cls-12" d="M288.15,225.23l-.4,15.35A68,68,0,0,0,305.58,243c1,0,2.05,0,3.07-.07a67.48,67.48,0,0,0,15.77-2.58h.1c1-.28,1.89-.57,2.82-.89h.1l.85-.3a65.68,65.68,0,0,0,9.4-4.16l.19-.1,1-.55-1.55-20.69,2.47-14.19-13.52-9.21a24.88,24.88,0,0,1-2.54,3.08,17.07,17.07,0,0,1-4.62,3.42c-9.7,4.78-20.74-2.82-26.23-7.52l-1.25-1.11c-1.42-1.29-2.23-2.17-2.23-2.17l-6.76,10.44Z"/><path class="cls-17" d="M288.15,226.23l-.4,15.35A68,68,0,0,0,305.58,244c1,0,2.05,0,3.07-.07a67.48,67.48,0,0,0,15.77-2.58h.1c1-.28,1.89-.57,2.82-.89h.1l.85-.3a65.68,65.68,0,0,0,9.4-4.16l.19-.1,1-.55-1.55-20.69,2.47-14.19-13.52-9.21a24.88,24.88,0,0,1-2.54,3.08,17.07,17.07,0,0,1-4.62,3.42c-9.7,4.78-20.74-2.82-26.23-7.52l-1.25-1.11c-1.42-1.29-2.23-2.17-2.23-2.17l-6.76,10.44Z"/><path class="cls-27" d="M251.16,216.73c.89,1.19,1.82,2.34,2.79,3.47.52.61,1.06,1.21,1.61,1.8q.41.45.84.9a67.66,67.66,0,0,0,7.26,6.59l.18.13a66.38,66.38,0,0,0,12.9,7.92h0a68.73,68.73,0,0,0,7.24,2.9l.91.29c.56.19,1.14.36,1.71.52l.23.07c.29.08.58.17.88.24a68,68,0,0,0,17.83,2.37c1,0,2,0,3.07-.07.78-12.76,1-23-.22-25.63a40.58,40.58,0,0,0-2.47-4.42c-4.94-7.94-14-19.88-13.51-21.39a15.87,15.87,0,0,0,.41-2.25c.53-3.94,1.06-11.15,1.06-11.15h0c-.22,0-4.7.11-11.29,9.09-6.76,9.22-21.51,10.45-21.51,10.45S256.57,196.56,251.16,216.73Z"/><path class="cls-27" d="M325.63,227.46s.74,5.89,1.71,12.93h.1l.85-.3a65.68,65.68,0,0,0,9.4-4.16l.19-.1,1-.55a68.26,68.26,0,0,0,12.34-8.88l.33-.31a63.28,63.28,0,0,0,5.81-6l.21-.25c-3.57-12.39-11-16.29-11-16.29s-6.76-3.08-8.61-7.38-18.18-13.39-18.18-13.39v.07c0,.77-.26,7.82-.65,14.91-.25,4.61-.56,9.24-.92,12.18a14.29,14.29,0,0,1-.52,2.82C316.42,215.79,325.63,227.46,325.63,227.46Z"/></g></g></svg>