<svg xmlns="http://www.w3.org/2000/svg" viewBox="0 0 500 500"><defs><style>.cls-1{fill:#3f51b5;}.cls-2{fill:#fff;}</style></defs><title>swiper-next-arrow</title><g id="Layer_2" data-name="Layer 2"><g id="Layer_1-2" data-name="Layer 1"><circle class="cls-1" cx="250" cy="250" r="250"/><path class="cls-2" d="M399,250a17.93,17.93,0,0,1-3.23,10.45l-95,142.5A18.86,18.86,0,0,1,285,411.5H228a19.06,19.06,0,0,1-19-19,17.93,17.93,0,0,1,3.23-10.45l88-132-88-132A17.93,17.93,0,0,1,209,107.5a19.06,19.06,0,0,1,19-19h57a18.86,18.86,0,0,1,15.77,8.55l95,142.5A17.93,17.93,0,0,1,399,250Z"/><path class="cls-2" d="M247,250a11.13,11.13,0,0,1-2,6.49L186,345a11.69,11.69,0,0,1-9.79,5.31H140.8A11.83,11.83,0,0,1,129,338.5a11.13,11.13,0,0,1,2-6.49l54.63-82L131,168a11.13,11.13,0,0,1-2-6.49,11.83,11.83,0,0,1,11.8-11.8h35.4A11.69,11.69,0,0,1,186,155l59,88.5A11.13,11.13,0,0,1,247,250Z"/></g></g></svg>