<svg xmlns="http://www.w3.org/2000/svg" viewBox="0 0 500 500"><defs><style>.cls-1{fill:#3f51b5;}.cls-2{fill:#fff;}</style></defs><title>swiper-prev-arrow</title><g id="Layer_2" data-name="Layer 2"><g id="Layer_1-2" data-name="Layer 1"><circle class="cls-1" cx="250" cy="250" r="250"/><path class="cls-2" d="M104.23,239.55l95-142.5A18.86,18.86,0,0,1,215,88.5h57a19.06,19.06,0,0,1,19,19A17.93,17.93,0,0,1,287.77,118L199.8,250l88,132.05A17.93,17.93,0,0,1,291,392.5a19.06,19.06,0,0,1-19,19H215A18.86,18.86,0,0,1,199.23,403l-95-142.5a18.52,18.52,0,0,1,0-20.9Z"/><path class="cls-2" d="M255,243.51,314,155a11.69,11.69,0,0,1,9.79-5.31h35.4A11.83,11.83,0,0,1,371,161.5a11.13,11.13,0,0,1-2,6.49l-54.63,82L369,332a11.13,11.13,0,0,1,2,6.49,11.83,11.83,0,0,1-11.8,11.8H323.8A11.69,11.69,0,0,1,314,345l-59-88.5a11.48,11.48,0,0,1,0-13Z"/></g></g></svg>