<svg xmlns="http://www.w3.org/2000/svg" viewBox="0 0 595.78 73.01"><defs><style>.cls-1{fill:#fff;}.cls-2{opacity:0.35;}</style></defs><title>Layer 2</title><g id="Layer_2" data-name="Layer 2"><g id="Layer_1-2" data-name="Layer 1"><g id="Layer_2-2" data-name="Layer 2"><g id="Layer_1-2-2" data-name="Layer 1-2"><path class="cls-1" d="M64.52,66.2a16.6,16.6,0,0,1-4.51,5Q57.51,73,52.79,73c-3.14,0-5.56-.6-7.23-1.78a16.43,16.43,0,0,1-4.5-5L0,0H19.27L53.1,55.2,86.82,0h19Z"/><path class="cls-1" d="M134.37,71.44a54.89,54.89,0,0,1-13.09-1.31,18.88,18.88,0,0,1-8.38-4.19,15.67,15.67,0,0,1-4.45-7.54,43,43,0,0,1-1.31-11.47V24.52a43.49,43.49,0,0,1,1.31-11.42,15.79,15.79,0,0,1,4.45-7.59,19.09,19.09,0,0,1,8.38-4.19A55.94,55.94,0,0,1,134.37,0h49.54V13.73h-48.8a25.72,25.72,0,0,0-6,.58,7.72,7.72,0,0,0-3.71,1.93,7.41,7.41,0,0,0-1.89,3.62,24.77,24.77,0,0,0-.52,5.5V46.3a24.58,24.58,0,0,0,.52,5.55,7.26,7.26,0,0,0,1.89,3.56,7.36,7.36,0,0,0,3.77,1.89,28.73,28.73,0,0,0,6.07.52h48.7V71.44Z"/><path class="cls-1" d="M220.88,71.44a54.89,54.89,0,0,1-13.09-1.31,18.88,18.88,0,0,1-8.38-4.19A15.77,15.77,0,0,1,195,58.4a43,43,0,0,1-1.31-11.47V24.52A43.49,43.49,0,0,1,195,13.1a15.79,15.79,0,0,1,4.45-7.59,19.09,19.09,0,0,1,8.38-4.19,55.55,55.55,0,0,1,13-1.31H248a55.75,55.75,0,0,1,13.2,1.31,18.88,18.88,0,0,1,8.38,4.19A15.66,15.66,0,0,1,274,13.1a42.67,42.67,0,0,1,1.31,11.42V46.93A43,43,0,0,1,274,58.4a15.67,15.67,0,0,1-4.45,7.54,18.88,18.88,0,0,1-8.38,4.19A55.5,55.5,0,0,1,248,71.44Zm38.54-46.19a22.56,22.56,0,0,0-.57-5.55,7.74,7.74,0,0,0-1.94-3.56,7.4,7.4,0,0,0-3.72-1.89,28.29,28.29,0,0,0-5.81-.52H221.62a30,30,0,0,0-6.13.52,7.4,7.4,0,0,0-3.72,1.89,6.86,6.86,0,0,0-1.83,3.56,26.51,26.51,0,0,0-.47,5.55v21a28,28,0,0,0,.47,5.71,6.64,6.64,0,0,0,1.83,3.56,7.23,7.23,0,0,0,3.72,1.78,31.49,31.49,0,0,0,6.13.47h25.76a29,29,0,0,0,5.81-.47A6.64,6.64,0,0,0,258.85,52a23.81,23.81,0,0,0,.57-5.71Z"/><path class="cls-1" d="M303.1,51V71.44H287.18V0h57.18a57.14,57.14,0,0,1,12.78,1.2,18.73,18.73,0,0,1,8.27,4,15.05,15.05,0,0,1,4.45,7.18A37.72,37.72,0,0,1,371.17,23v6.18a38.12,38.12,0,0,1-1.25,10.58,13.28,13.28,0,0,1-4.35,6.7A18.29,18.29,0,0,1,357.35,50a69.92,69.92,0,0,1-13,1Zm52.15-27.34q0-5.76-2.46-7.86t-8.85-2.09H303.1v24.4h41q6.28,0,8.7-1.93t2.4-7.6Z"/><g class="cls-2"><path class="cls-1" d="M402.55,71.44V0h15.92V71.44Z"/><path class="cls-1" d="M457.75,71.44a55,55,0,0,1-13.1-1.31,18.88,18.88,0,0,1-8.38-4.19,15.8,15.8,0,0,1-4.45-7.54,43.44,43.44,0,0,1-1.3-11.47V24.52a43.07,43.07,0,0,1,1.3-11.42,15.87,15.87,0,0,1,4.45-7.59,19.09,19.09,0,0,1,8.38-4.19A55,55,0,0,1,457.75,0h27.12a55.75,55.75,0,0,1,13.2,1.31,19.09,19.09,0,0,1,8.38,4.19,15.87,15.87,0,0,1,4.45,7.59,43.49,43.49,0,0,1,1.31,11.42V46.93A43,43,0,0,1,510.9,58.4a15.8,15.8,0,0,1-4.45,7.54,18.88,18.88,0,0,1-8.38,4.19,55.75,55.75,0,0,1-13.2,1.31Zm38.54-46.19a22.52,22.52,0,0,0-.58-5.55,7.56,7.56,0,0,0-1.94-3.56,7.41,7.41,0,0,0-3.71-1.89,28.45,28.45,0,0,0-5.82-.52H458.48a30,30,0,0,0-6.13.52,7.4,7.4,0,0,0-3.72,1.89,7,7,0,0,0-1.83,3.56,27.93,27.93,0,0,0-.47,5.55v21A28.71,28.71,0,0,0,446.8,52a6.64,6.64,0,0,0,1.83,3.56,7.23,7.23,0,0,0,3.72,1.78,31.49,31.49,0,0,0,6.13.47h25.76a29.13,29.13,0,0,0,5.82-.47A6.65,6.65,0,0,0,495.71,52a23.82,23.82,0,0,0,.58-5.71Z"/><path class="cls-1" d="M549.8,71.44V13.73H519.85V0h75.93V13.73H565.83V71.44Z"/></g></g></g></g></g></svg>