<svg xmlns="http://www.w3.org/2000/svg" viewBox="0 0 595.78 73"><defs><style>.cls-1{fill:#354168;}.cls-2{opacity:0.35;}</style></defs><title>login-title</title><g id="Layer_2" data-name="Layer 2"><g id="Layer_1-2" data-name="Layer 1"><path class="cls-1" d="M64.52,66.19a16.75,16.75,0,0,1-4.51,5C58.34,72.4,55.93,73,52.79,73s-5.56-.6-7.23-1.78a16.6,16.6,0,0,1-4.5-5L0,0H19.27L53.1,55.19,86.82,0h19Z"/><path class="cls-1" d="M134.37,71.43a55.24,55.24,0,0,1-13.09-1.31,19,19,0,0,1-8.38-4.19,15.73,15.73,0,0,1-4.45-7.54,43.15,43.15,0,0,1-1.31-11.47V24.51a43.27,43.27,0,0,1,1.31-11.42A15.75,15.75,0,0,1,112.9,5.5a19,19,0,0,1,8.38-4.19A55.24,55.24,0,0,1,134.37,0h49.54V13.72h-48.8a25.76,25.76,0,0,0-6,.58,7.68,7.68,0,0,0-3.71,1.93,7.35,7.35,0,0,0-1.89,3.62,24.62,24.62,0,0,0-.52,5.5V46.29a24.42,24.42,0,0,0,.52,5.55,7.24,7.24,0,0,0,1.89,3.56,7.36,7.36,0,0,0,3.77,1.89,29.22,29.22,0,0,0,6.07.52h48.7V71.43Z"/><path class="cls-1" d="M220.88,71.43a55.24,55.24,0,0,1-13.09-1.31,19,19,0,0,1-8.38-4.19A15.73,15.73,0,0,1,195,58.39a43.15,43.15,0,0,1-1.31-11.47V24.51A43.27,43.27,0,0,1,195,13.09a15.75,15.75,0,0,1,4.45-7.59,19,19,0,0,1,8.38-4.19A55.24,55.24,0,0,1,220.88,0H248A55.73,55.73,0,0,1,261.2,1.31a18.92,18.92,0,0,1,8.38,4.19A15.67,15.67,0,0,1,274,13.09a42.86,42.86,0,0,1,1.31,11.42V46.92A42.74,42.74,0,0,1,274,58.39a15.65,15.65,0,0,1-4.45,7.54,18.92,18.92,0,0,1-8.38,4.19A55.73,55.73,0,0,1,248,71.43Zm38.54-46.19a22.65,22.65,0,0,0-.57-5.55,7.68,7.68,0,0,0-1.94-3.56,7.4,7.4,0,0,0-3.72-1.89,28,28,0,0,0-5.81-.52H221.62a29.81,29.81,0,0,0-6.13.52,7.4,7.4,0,0,0-3.72,1.89,6.9,6.9,0,0,0-1.83,3.56,26.81,26.81,0,0,0-.47,5.55V46.29a28.17,28.17,0,0,0,.47,5.71,6.64,6.64,0,0,0,1.83,3.56,7.22,7.22,0,0,0,3.72,1.78,31.83,31.83,0,0,0,6.13.47h25.76a29.8,29.8,0,0,0,5.81-.47,7.22,7.22,0,0,0,3.72-1.78A7.35,7.35,0,0,0,258.85,52a23.78,23.78,0,0,0,.57-5.71Z"/><path class="cls-1" d="M303.1,51V71.43H287.18V0h57.18a57.28,57.28,0,0,1,12.78,1.2,18.76,18.76,0,0,1,8.27,4,15.08,15.08,0,0,1,4.45,7.18A37.54,37.54,0,0,1,371.17,23v6.18a37.8,37.8,0,0,1-1.25,10.58,13.32,13.32,0,0,1-4.35,6.7A18.28,18.28,0,0,1,357.35,50a70.35,70.35,0,0,1-13,1Zm52.15-27.34q0-5.76-2.46-7.86t-8.85-2.09H303.1v24.4h41q6.28,0,8.7-1.93t2.4-7.6Z"/><g class="cls-2"><path class="cls-1" d="M402.55,71.43V0h15.92V71.43Z"/><path class="cls-1" d="M457.75,71.43a55.27,55.27,0,0,1-13.1-1.31,19,19,0,0,1-8.38-4.19,15.81,15.81,0,0,1-4.45-7.54,43.19,43.19,0,0,1-1.3-11.47V24.51a43.31,43.31,0,0,1,1.3-11.42,15.83,15.83,0,0,1,4.45-7.59,19,19,0,0,1,8.38-4.19A55.27,55.27,0,0,1,457.75,0h27.12a55.77,55.77,0,0,1,13.2,1.31,19,19,0,0,1,8.38,4.19,15.83,15.83,0,0,1,4.45,7.59,43.27,43.27,0,0,1,1.31,11.42V46.92a43.15,43.15,0,0,1-1.31,11.47,15.81,15.81,0,0,1-4.45,7.54,19,19,0,0,1-8.38,4.19,55.77,55.77,0,0,1-13.2,1.31Zm38.54-46.19a22.59,22.59,0,0,0-.58-5.55,7.59,7.59,0,0,0-1.94-3.56,7.36,7.36,0,0,0-3.71-1.89,28,28,0,0,0-5.82-.52H458.48a29.81,29.81,0,0,0-6.13.52,7.4,7.4,0,0,0-3.72,1.89,7,7,0,0,0-1.83,3.56,27.52,27.52,0,0,0-.47,5.55V46.29A28.91,28.91,0,0,0,446.8,52a6.71,6.71,0,0,0,1.83,3.56,7.22,7.22,0,0,0,3.72,1.78,31.83,31.83,0,0,0,6.13.47h25.76a29.91,29.91,0,0,0,5.82-.47,7.18,7.18,0,0,0,3.71-1.78A7.27,7.27,0,0,0,495.71,52a23.72,23.72,0,0,0,.58-5.71Z"/><path class="cls-1" d="M549.8,71.43V13.72H519.85V0h75.93V13.72H565.83V71.43Z"/></g></g></g></svg>